<svg width="111" height="111" viewBox="0 0 111 111" fill="none" xmlns="http://www.w3.org/2000/svg">
<path d="M55.5 111C24.8222 111 0 86.141 0 55.5C0 24.8222 24.859 0 55.5 0C86.1778 0 111 24.859 111 55.5C111.037 86.1778 86.1778 111 55.5 111Z" fill="#CCCCCC"/>
<path d="M78.6237 100.922C78.3958 101.085 78.1354 101.248 77.9076 101.41C77.6472 101.573 77.4194 101.736 77.159 101.866C76.9311 101.996 76.7359 102.127 76.508 102.257C76.4755 102.289 76.4429 102.289 76.4104 102.322C75.6618 102.778 74.8806 103.201 74.0994 103.591C73.8716 103.721 73.6112 103.852 73.3833 103.949C73.3833 103.949 73.3508 103.982 73.3182 103.982C73.0579 104.112 72.7975 104.242 72.5371 104.372C72.0163 104.633 71.463 104.861 70.9422 105.088C70.6818 105.219 70.3889 105.316 70.1285 105.414C69.8681 105.512 69.5751 105.642 69.3148 105.739C69.0544 105.837 68.7614 105.967 68.501 106.065C68.501 106.065 68.501 106.065 68.4685 106.065C68.2081 106.163 67.9152 106.26 67.6548 106.358C67.0689 106.553 66.4505 106.748 65.8646 106.944C65.6693 107.009 65.4415 107.074 65.2462 107.139C64.6277 107.334 64.0093 107.497 63.3909 107.627C63.1631 107.692 62.9352 107.725 62.6748 107.79C62.0889 107.92 61.4705 108.05 60.8846 108.181C60.7544 108.213 60.6568 108.213 60.5266 108.246C60.3313 108.278 60.1035 108.311 59.9082 108.343C59.6152 108.376 59.3549 108.441 59.0619 108.474C58.9317 108.506 58.8015 108.506 58.6713 108.539C58.5086 108.571 58.3133 108.604 58.118 108.604C57.5972 108.669 57.0439 108.734 56.5231 108.799C56.3604 108.832 56.1651 108.832 56.0023 108.864H55.9698C55.742 108.897 55.5141 108.897 55.2863 108.929C55.0584 108.962 54.8306 108.962 54.6027 108.962C54.4726 108.962 54.3098 108.994 54.1796 108.994C53.9192 108.994 53.6914 109.027 53.4635 109.027C53.1381 109.027 52.8451 109.059 52.5196 109.059C52.1941 109.059 51.9012 109.059 51.5757 109.059C51.3479 109.059 51.12 109.059 50.8922 109.059C37.1892 108.864 24.8207 103.038 16.0325 93.7941C16.0325 93.7941 16.0325 93.7615 16 93.7615C17.009 91.776 20.7521 88.1957 24.658 85.2338C29.6054 81.4907 36.6033 79.1797 36.6033 79.1797C36.6033 79.1797 41.1927 78.4311 58.2156 81.9789C71.2026 84.713 76.7359 95.8121 78.6237 100.922Z" fill="#F7D3B5"/>
<path d="M61.8292 90.9953C61.1457 94.3479 56.7191 96.3333 49.2654 93.3389C40.1193 89.6283 36.604 79.1802 36.604 79.1802C36.1158 71.694 34.9766 65.2819 34.9766 65.2819C45.5549 64.3705 58.0536 76.739 58.0536 76.739L59.4857 82.8582C59.6159 83.379 59.8763 83.8346 60.2669 84.1601C60.9504 85.3319 62.2849 88.8471 61.8292 90.9953Z" fill="#F7D3B5"/>
<path d="M60.2659 84.1923C54.0491 83.8668 49.4598 82.9555 44.5449 74.1348C48.7112 77.8128 53.626 79.2124 58.8012 79.8633L59.4848 82.8578C59.615 83.4111 59.8754 83.8668 60.2659 84.1923Z" fill="#EFBDA5"/>
<path d="M73.1235 44.9713C73.7094 47.7054 74.0023 49.9187 72.4074 57.2096C70.8125 64.5005 73.8721 71.7914 66.1906 78.4639C61.0154 82.9556 51.9668 83.8019 44.741 78.887C42.2999 77.227 40.054 74.9161 38.2313 71.889C36.7991 69.513 35.1392 67.2671 33.2839 65.2165C30.7125 62.4174 27.6204 56.7864 29.1502 46.8265C31.6239 30.6173 47.6704 28.762 57.1421 30.5522C66.6137 32.3424 71.5286 37.7455 73.1235 44.9713Z" fill="#F7D3B5"/>
<path d="M41.9734 57.6978C41.9734 57.6978 40.9644 52.8155 36.2123 53.4013C32.1111 53.9221 30.679 63.7518 39.9879 66.4859" fill="#F7D3B5"/>
<path d="M39.6965 62.0268C39.6965 62.0268 38.5247 61.2781 38.6549 59.9762C38.8502 58.4464 38.6549 57.5025 37.9389 57.2095C36.1487 56.4609 35.7906 58.544 35.8557 58.8044" stroke="#423232" stroke-width="1.5" stroke-miterlimit="10" stroke-linecap="round" stroke-linejoin="round"/>
<path d="M64.53 65.1838C64.53 65.1838 65.7668 65.2489 66.9386 63.8493C67.5896 63.0681 68.1429 62.0916 67.7848 61.7987C67.4268 61.4732 61.5355 62.3846 61.1449 63.1658C60.7543 63.9469 63.0327 65.1838 64.53 65.1838Z" fill="#EFBDA5"/>
<path d="M65.506 54.2478C65.506 54.2478 65.5711 57.3399 67.5566 60.7901C68.4354 62.3199 67.1009 64.8261 64.2041 65.2493" stroke="#423232" stroke-width="1.5" stroke-miterlimit="10" stroke-linecap="round" stroke-linejoin="round"/>
<path opacity="0.42" d="M47.8652 66.8438C49.7168 66.8438 51.2177 65.6052 51.2177 64.0772C51.2177 62.5492 49.7168 61.3105 47.8652 61.3105C46.0137 61.3105 44.5127 62.5492 44.5127 64.0772C44.5127 65.6052 46.0137 66.8438 47.8652 66.8438Z" fill="#ED938A"/>
<path opacity="0.42" d="M71.8868 61.3755C71.7891 63.1982 71.8217 64.9884 71.6915 66.7786C70.2593 66.4531 69.2178 65.379 69.2178 64.1096C69.2178 62.7425 70.357 61.6359 71.8868 61.3755Z" fill="#ED938A"/>
<path d="M54.1309 57.1368C53.3078 57.1025 52.6905 56.4166 52.7591 55.5935L52.7934 54.6332C52.8277 53.8101 53.5136 53.1927 54.3367 53.2613C55.1598 53.2956 55.7771 53.9816 55.7086 54.8047L55.6743 55.765C55.64 56.5538 54.954 57.1711 54.1309 57.1368Z" fill="#423232"/>
<path d="M68.5694 57.6515C67.8148 57.6172 67.2318 56.9656 67.2661 56.2111L67.3004 55.3194C67.3347 54.5648 67.9863 53.9818 68.7408 54.0161C69.4954 54.0504 70.0784 54.702 70.0441 55.4565L70.0098 56.3482C69.9755 57.1028 69.3239 57.6858 68.5694 57.6515Z" fill="#423232"/>
<path d="M57.4575 55.1476C57.4575 55.1476 56.5658 53.8786 55.0224 53.6385C53.7535 53.4328 52.3473 54.0501 52.1416 54.7703" stroke="#423232" stroke-width="2" stroke-miterlimit="10" stroke-linecap="round" stroke-linejoin="round"/>
<path d="M67.5742 55.4566C67.5742 55.4566 67.5742 54.3591 69.1519 54.3591C70.4551 54.3591 71.0039 55.5595 71.0039 55.5595" stroke="#423232" stroke-width="2" stroke-miterlimit="10" stroke-linecap="round" stroke-linejoin="round"/>
<path d="M58.8633 49.6264C59.5835 49.8665 60.3038 49.2149 60.1666 48.4261C60.098 48.0145 59.9265 47.6029 59.5835 47.2943C58.5547 46.3683 54.3019 45.5452 51.7297 46.7455C49.4662 47.843 55.5709 48.5289 58.8633 49.6264Z" fill="#423232"/>
<path d="M69.1176 50.175C68.5346 50.3808 67.9173 49.7635 68.0201 49.0432C68.0544 48.666 68.1916 48.2887 68.466 48.0144C69.2891 47.1913 72.1014 46.5396 73.8848 47.8086C75.4281 48.8718 71.7927 49.1804 69.1176 50.175Z" fill="#423232"/>
<path d="M39.6299 54.0467C39.8076 54.215 39.9679 54.3622 40.1084 54.5671C40.1804 54.6723 40.2012 54.7943 40.2615 54.9029C40.2641 54.9074 40.3239 54.9732 40.3245 54.97C40.3402 54.8795 40.2346 54.7036 40.2049 54.6259C40.1049 54.3645 40.0011 54.1204 39.8691 53.8746C39.7981 53.7423 40.0214 54.1336 40.0979 54.2628C40.2854 54.58 40.4543 54.9104 40.6581 55.2176C40.6755 55.2438 40.7271 55.3188 40.7211 55.2879C40.7044 55.2026 40.6596 55.1252 40.6246 55.0455C40.5128 54.7914 40.2531 54.2433 40.1356 53.9963C40.0624 53.8424 39.9797 53.6926 39.9153 53.5347C39.9089 53.5189 39.9286 53.5247 39.9321 53.5263C39.965 53.5407 39.9979 53.572 40.0265 53.5934" stroke="#F7D3B5" stroke-linecap="round"/>
<path d="M40.1582 53.9336C40.2727 53.9467 40.3154 54.0532 40.366 54.1466C40.4804 54.3578 40.5461 54.5741 40.6881 54.7719C40.8596 55.0108 40.9776 55.2224 41.0647 55.5011" stroke="#F7D3B5" stroke-linecap="round"/>
<path d="M55 72C57.5 74 60.4 75.6 66 72" stroke="#423232" stroke-width="2" stroke-linecap="round"/>
<mask id="mask0_440_978" style="mask-type:alpha" maskUnits="userSpaceOnUse" x="0" y="0" width="111" height="111">
<path d="M55.5 111C24.8221 111 0 86.141 0 55.5C0 24.8222 24.859 0 55.5 0C86.1778 0 111 24.859 111 55.5C111.037 86.1778 86.1778 111 55.5 111Z" fill="#B56252"/>
</mask>
<g mask="url(#mask0_440_978)">
<path d="M87.0498 119.998H8.01562C8.01562 119.998 8.48458 105.877 13.2367 95.8041C16.832 88.1958 25.3044 83.9656 31.6196 81.7744C33.4016 81.1658 35.0273 80.7093 36.2779 80.3745C36.2779 80.5267 36.3091 80.6484 36.3091 80.8006C36.3091 80.8006 39.6856 90.5696 48.4706 94.0389C55.63 96.8692 59.8818 94.9824 60.5383 91.8478C60.9448 89.8392 59.6629 86.5524 59.0064 85.4872C58.6313 85.1829 58.3811 84.7264 58.2561 84.2699L58.006 83.2656C58.6 83.1439 59.1627 82.9917 59.7255 82.8091C59.9131 82.7483 60.0694 82.6874 60.257 82.6265C64.2899 83.6613 70.3551 86.1263 77.5144 91.9695C85.6116 98.543 87.0498 119.998 87.0498 119.998Z" fill="#1B2138"/>
<path d="M45.7509 97.2039C34.965 92.4868 30.7757 84.0569 31.5885 81.7744C31.5885 81.7744 31.5884 81.7439 31.6197 81.7135C32.1824 80.5875 33.0892 79.6745 34.2146 79.0354C34.8399 78.6702 35.5277 78.3354 36.0905 78.1528C36.1217 78.5789 36.2468 79.918 36.278 80.3745C36.278 80.5266 36.3093 80.6483 36.3093 80.8005C36.3093 80.8005 38.3102 88.074 47.0952 91.5434C54.2545 94.3737 58.6939 92.5173 59.1628 89.3522C59.6943 85.8524 57.6623 83.3265 57.6623 83.3265C58.2563 83.2047 59.1942 82.9917 59.7569 82.8091C61.1325 84.4221 62.5394 86.035 63.0709 90.2956C63.8212 96.4127 56.9119 102.104 45.7509 97.2039Z" fill="#1F2742"/>
<path d="M23.4909 119.998L22.084 108.708" stroke="#544D4D" stroke-width="3" stroke-miterlimit="10" stroke-linecap="round" stroke-linejoin="round"/>
<path d="M78.0774 104.873C78.0774 104.873 77.1395 107.095 77.4209 109.316C77.7023 111.538 78.5151 114.794 77.3584 119.998" stroke="#544D4D" stroke-width="2" stroke-miterlimit="10" stroke-linecap="round" stroke-linejoin="round"/>
<path fill-rule="evenodd" clip-rule="evenodd" d="M37.5402 103.671C37.6236 103.666 37.6897 103.601 37.6897 103.521V102.932C37.6897 102.907 37.6829 102.883 37.671 102.861C37.6441 102.814 37.5911 102.782 37.5301 102.782H36.2788H36.2752H36.268C36.1798 102.782 36.1084 102.849 36.1084 102.932V104.11C36.1084 104.193 36.1798 104.26 36.268 104.26C36.3561 104.26 36.4275 104.193 36.4275 104.11V103.672H37.5301L37.5402 103.671ZM36.4275 103.083H37.3705V103.37H36.4275V103.083Z" fill="white"/>
<path d="M39.3861 103.67C39.4648 103.661 39.5256 103.598 39.5256 103.521V102.932C39.5256 102.907 39.5189 102.883 39.5069 102.861C39.4801 102.814 39.4271 102.782 39.3661 102.782H38.1148H38.1112H38.1039C38.0158 102.782 37.9443 102.849 37.9443 102.932V104.11C37.9443 104.193 38.0158 104.26 38.1039 104.26C38.1921 104.26 38.2635 104.193 38.2635 104.11V103.083H39.2065V103.37H38.7924C38.7469 103.367 38.7001 103.381 38.6653 103.414L38.6575 103.422C38.6031 103.481 38.6057 103.571 38.6653 103.627L39.25 104.179C39.3124 104.238 39.4134 104.238 39.4757 104.179L39.4835 104.171C39.5379 104.112 39.5353 104.022 39.4757 103.966L39.164 103.672H39.3661L39.3762 103.671L39.3861 103.67Z" fill="white"/>
<path fill-rule="evenodd" clip-rule="evenodd" d="M39.9481 104.26H39.9553H41.2029H41.2131C41.2965 104.255 41.3625 104.19 41.3625 104.11V102.932C41.3625 102.907 41.3557 102.883 41.3438 102.861C41.317 102.814 41.2639 102.782 41.2029 102.782H39.9517H39.9481H39.9408C39.8526 102.782 39.7812 102.849 39.7812 102.932V104.11C39.7812 104.193 39.8526 104.26 39.9408 104.26C39.9432 104.26 39.9457 104.26 39.9481 104.26ZM40.1003 103.083H41.0434V103.959H40.1003V103.083Z" fill="white"/>
<path d="M43.183 102.904C43.1691 102.834 43.1042 102.782 43.0262 102.782H42.5611C42.473 102.782 42.4015 102.849 42.4015 102.932C42.4015 103.015 42.473 103.083 42.5611 103.083H42.8663V103.959H41.7768C41.6887 103.959 41.6172 104.027 41.6172 104.11C41.6172 104.193 41.6887 104.26 41.7768 104.26H43.0262C43.1144 104.26 43.1858 104.193 43.1858 104.11V102.932C43.1858 102.923 43.1848 102.913 43.183 102.904Z" fill="white"/>
<path d="M46.8459 102.932C46.8459 102.849 46.7744 102.782 46.6863 102.782H45.4369C45.3487 102.782 45.2773 102.849 45.2773 102.932C45.2773 103.015 45.3487 103.083 45.4369 103.083H45.9018V104.11C45.9018 104.193 45.9733 104.26 46.0616 104.26C46.1498 104.26 46.2213 104.193 46.2213 104.11V103.083H46.6863C46.7744 103.083 46.8459 103.015 46.8459 102.932Z" fill="white"/>
<path fill-rule="evenodd" clip-rule="evenodd" d="M47.2674 104.26H47.2747H48.5223H48.5324C48.6159 104.255 48.6819 104.19 48.6819 104.11V102.932C48.6819 102.907 48.6751 102.883 48.6632 102.861C48.6364 102.814 48.5834 102.782 48.5223 102.782H47.271H47.2674H47.2602C47.172 102.782 47.1006 102.849 47.1006 102.932V104.11C47.1006 104.193 47.172 104.26 47.2602 104.26C47.2626 104.26 47.265 104.26 47.2674 104.26ZM47.4198 103.083H48.3627V103.959H47.4198V103.083Z" fill="white"/>
<path d="M43.4404 104.123C43.4404 104.206 43.5112 104.272 43.5984 104.272H44.8638C44.951 104.272 45.0218 104.206 45.0218 104.123C45.0218 104.041 44.951 103.974 44.8638 103.974H43.7567V103.08H44.8638C44.951 103.08 45.0218 103.013 45.0218 102.931C45.0218 102.848 44.951 102.782 44.8638 102.782H43.5984C43.5212 102.782 43.457 102.834 43.4432 102.903C43.4414 102.912 43.4404 102.921 43.4404 102.931V104.123Z" fill="white"/>
<path d="M44.3894 103.527C44.3894 103.445 44.3187 103.378 44.2315 103.378C44.1443 103.378 44.0732 103.445 44.0732 103.527C44.0732 103.609 44.1439 103.676 44.2311 103.676C44.3183 103.676 44.3894 103.609 44.3894 103.527Z" fill="white"/>
<path d="M68.3372 105.402L68.336 105.401C68.1847 105.319 67.9917 105.369 67.9048 105.512L66.6957 107.499L65.4867 105.512L65.4795 105.5C65.3894 105.366 65.2027 105.322 65.0555 105.401L65.0543 105.402L65.0422 105.409C64.8998 105.495 64.8528 105.672 64.9379 105.812L66.4151 108.24C66.4277 108.263 66.4434 108.284 66.4624 108.304C66.4974 108.34 66.5408 108.367 66.588 108.383C66.5886 108.383 66.5894 108.383 66.59 108.383C66.5926 108.384 66.5953 108.385 66.598 108.386C66.6004 108.387 66.6029 108.388 66.6053 108.388L66.6088 108.389C66.6122 108.39 66.6156 108.391 66.6191 108.392C66.6195 108.392 66.6201 108.392 66.6206 108.392C66.6241 108.393 66.6277 108.394 66.6314 108.394C66.6322 108.395 66.6334 108.395 66.6342 108.395C66.6363 108.395 66.6385 108.396 66.6406 108.396C66.642 108.396 66.6434 108.397 66.6448 108.397H66.6459C66.6494 108.398 66.6529 108.398 66.6564 108.398C66.661 108.399 66.6656 108.399 66.6702 108.4C66.6715 108.4 66.6728 108.4 66.674 108.4C66.6756 108.4 66.6772 108.4 66.6787 108.4C66.6803 108.4 66.6818 108.4 66.6833 108.4C66.685 108.401 66.6866 108.401 66.6882 108.401H66.6939H66.7005H66.7033L66.7082 108.4C66.7113 108.4 66.7144 108.4 66.7175 108.4H66.7198H66.7213C66.7258 108.399 66.7304 108.399 66.735 108.398C66.7385 108.398 66.7421 108.397 66.7456 108.397H66.7467C66.7502 108.396 66.7538 108.396 66.7573 108.395H66.759C66.7594 108.395 66.7598 108.395 66.7601 108.394C66.7622 108.394 66.7643 108.394 66.7664 108.393C66.7679 108.393 66.7694 108.392 66.7709 108.392C66.7714 108.392 66.772 108.392 66.7725 108.392C66.7759 108.391 66.7793 108.39 66.7827 108.389L66.7862 108.388C66.7875 108.388 66.7888 108.387 66.7901 108.387C66.7912 108.387 66.7924 108.386 66.7935 108.386C66.7962 108.385 66.7989 108.384 66.8015 108.383C66.8021 108.383 66.8029 108.383 66.8035 108.383C66.8548 108.365 66.9016 108.335 66.9382 108.294C66.9531 108.277 66.9658 108.259 66.9764 108.24L68.4536 105.812C68.541 105.669 68.489 105.485 68.3372 105.402Z" fill="white"/>
<path fill-rule="evenodd" clip-rule="evenodd" d="M61.6693 105.649C61.6624 105.489 61.5231 105.362 61.3523 105.362H58.8074C58.6322 105.362 58.4902 105.496 58.4902 105.661V108.057C58.4902 108.223 58.6322 108.357 58.8074 108.357H61.3523C61.5275 108.357 61.6696 108.223 61.6696 108.057V105.662C61.6696 105.658 61.6695 105.653 61.6693 105.649ZM58.4902 105.661L58.4904 105.65L58.4902 105.656V105.661ZM59.126 105.961H61.0337V107.758H59.126V105.961Z" fill="white"/>
<path d="M46.5672 105.661C46.5672 105.496 46.4251 105.362 46.2499 105.362H43.705C43.5298 105.362 43.3877 105.496 43.3877 105.661V106.859C43.3877 107.025 43.5298 107.159 43.705 107.159H45.9313V107.758H43.705C43.5298 107.758 43.3877 107.892 43.3877 108.057C43.3877 108.223 43.5298 108.357 43.705 108.357H46.2499C46.4251 108.357 46.5672 108.223 46.5672 108.057V106.86C46.5672 106.856 46.5671 106.852 46.5669 106.847C46.56 106.687 46.4207 106.56 46.2499 106.56H44.0236V105.961H46.2499C46.4251 105.961 46.5672 105.827 46.5672 105.661Z" fill="white"/>
<path d="M50.2614 105.661C50.2614 105.496 50.1193 105.362 49.9441 105.362H47.3992C47.224 105.362 47.082 105.496 47.082 105.661V108.057C47.082 108.223 47.224 108.357 47.3992 108.357H49.9441C50.1193 108.357 50.2614 108.223 50.2614 108.057C50.2614 107.892 50.1193 107.758 49.9441 107.758H47.7178V105.961H49.9441C50.1193 105.961 50.2614 105.827 50.2614 105.661Z" fill="white"/>
<path d="M72.1901 105.661C72.1901 105.496 72.048 105.362 71.8728 105.362H69.328C69.1527 105.362 69.0107 105.496 69.0107 105.661V108.057C69.0107 108.223 69.1527 108.357 69.328 108.357H71.8728C72.048 108.357 72.1901 108.223 72.1901 108.057C72.1901 107.892 72.048 107.758 71.8728 107.758H69.6465V105.961H71.8728C72.048 105.961 72.1901 105.827 72.1901 105.661Z" fill="white"/>
<path d="M42.9206 105.661C42.9206 105.496 42.7785 105.362 42.6033 105.362H40.0584C39.8832 105.362 39.7412 105.496 39.7412 105.661V108.057C39.7412 108.223 39.8832 108.357 40.0584 108.357H42.6033C42.7785 108.357 42.9206 108.223 42.9206 108.057C42.9206 107.892 42.7785 107.758 42.6033 107.758H40.377V105.961H42.6033C42.7785 105.961 42.9206 105.827 42.9206 105.661Z" fill="white"/>
<path d="M53.9077 105.649C53.9008 105.489 53.7615 105.362 53.5907 105.362H51.0458C50.875 105.362 50.7357 105.489 50.7288 105.649L50.7286 105.656L50.7285 105.661V108.057C50.7285 108.222 50.8709 108.357 51.0465 108.357C51.2221 108.357 51.3644 108.222 51.3644 108.057V105.961H53.2721V108.057C53.2721 108.222 53.4144 108.357 53.59 108.357C53.7656 108.357 53.908 108.222 53.908 108.057V105.662C53.908 105.658 53.9079 105.653 53.9077 105.649Z" fill="white"/>
<path fill-rule="evenodd" clip-rule="evenodd" d="M37.7868 105.403C37.7397 105.377 37.6848 105.362 37.6262 105.362H36.3642C36.189 105.362 36.0469 105.496 36.0469 105.661V108.057C36.0469 108.223 36.189 108.357 36.3642 108.357H37.6262C37.6682 108.357 37.7082 108.349 37.7448 108.335C37.7884 108.321 37.8293 108.297 37.8641 108.264L39.0978 107.103C39.1101 107.095 39.122 107.085 39.1332 107.074C39.1955 107.015 39.2269 106.938 39.2263 106.86C39.2269 106.783 39.1961 106.706 39.1338 106.647L39.1332 106.646C39.122 106.636 39.1101 106.626 39.0978 106.618L37.8641 105.457C37.8407 105.435 37.8146 105.417 37.7868 105.403ZM36.6833 105.961H37.4998L38.4557 106.86L37.5022 107.758H36.6833V105.961Z" fill="white"/>
<path d="M62.8192 105.65C62.8123 105.49 62.6727 105.362 62.5015 105.362C62.3259 105.362 62.1836 105.496 62.1836 105.662V108.057L62.1839 108.07C62.1907 108.229 62.33 108.357 62.5009 108.357H65.0457L65.0588 108.356C65.228 108.35 65.363 108.218 65.363 108.057L65.3627 108.045C65.3559 107.885 65.2166 107.758 65.0457 107.758H62.8195V105.662L62.8192 105.65Z" fill="white"/>
<path d="M48.9894 106.859C48.9894 106.694 48.8474 106.56 48.6721 106.56H48.6708C48.4956 106.56 48.3535 106.694 48.3535 106.859C48.3535 107.025 48.4956 107.159 48.6708 107.159H48.6721C48.8474 107.159 48.9894 107.025 48.9894 106.859Z" fill="white"/>
<path d="M70.9181 106.859C70.9181 106.694 70.7761 106.56 70.6008 106.56H70.5995C70.4243 106.56 70.2822 106.694 70.2822 106.859C70.2822 107.025 70.4243 107.159 70.5995 107.159H70.6008C70.7761 107.159 70.9181 107.025 70.9181 106.859Z" fill="white"/>
<path d="M41.6486 106.859C41.6486 106.694 41.5066 106.56 41.3313 106.56H41.33C41.1548 106.56 41.0127 106.694 41.0127 106.859C41.0127 107.025 41.1548 107.159 41.33 107.159H41.3313C41.5066 107.159 41.6486 107.025 41.6486 106.859Z" fill="white"/>
<path d="M56.2146 108.401H56.2203H56.2241C56.225 108.401 56.226 108.401 56.227 108.401C56.2279 108.401 56.2288 108.401 56.2297 108.401C56.2313 108.401 56.233 108.401 56.2346 108.4C56.2377 108.4 56.2408 108.4 56.2439 108.4H56.245C56.2459 108.4 56.2468 108.4 56.2477 108.4C56.2558 108.399 56.2639 108.398 56.272 108.397C56.2724 108.397 56.2728 108.397 56.2731 108.397C56.2767 108.396 56.2802 108.396 56.2837 108.395C56.2847 108.395 56.2856 108.395 56.2866 108.394C56.2902 108.394 56.2938 108.393 56.2974 108.392C56.2979 108.392 56.2984 108.392 56.2989 108.392C56.3023 108.391 56.3057 108.39 56.3091 108.389L56.3126 108.388C56.3151 108.388 56.3175 108.387 56.3199 108.386C56.3226 108.385 56.3253 108.384 56.328 108.383C56.3285 108.383 56.329 108.383 56.3295 108.383C56.3808 108.365 56.428 108.335 56.4647 108.294C56.4795 108.277 56.4923 108.259 56.5028 108.24L57.9801 105.812C58.0675 105.669 58.0154 105.485 57.8637 105.402L57.8624 105.401C57.7112 105.319 57.5181 105.369 57.4312 105.512L56.2222 107.499L55.0132 105.512C54.9263 105.369 54.7332 105.319 54.5819 105.401L54.5807 105.402C54.4289 105.485 54.3769 105.669 54.4643 105.812L55.9415 108.24C55.9541 108.263 55.9699 108.284 55.9888 108.304C56.0239 108.34 56.0672 108.367 56.1144 108.383C56.1151 108.383 56.1157 108.383 56.1164 108.383C56.1191 108.384 56.1218 108.385 56.1244 108.386C56.1269 108.387 56.1293 108.388 56.1317 108.388L56.1353 108.389C56.1363 108.389 56.1374 108.39 56.1384 108.39C56.1408 108.391 56.1431 108.391 56.1455 108.392C56.146 108.392 56.1465 108.392 56.147 108.392C56.1489 108.393 56.1508 108.393 56.1527 108.393C56.1544 108.394 56.1561 108.394 56.1578 108.394C56.1587 108.395 56.1597 108.395 56.1607 108.395C56.1642 108.396 56.1677 108.396 56.1712 108.397C56.1716 108.397 56.172 108.397 56.1723 108.397C56.1804 108.398 56.1885 108.399 56.1966 108.4C56.1979 108.4 56.1992 108.4 56.2005 108.4C56.2036 108.4 56.2067 108.4 56.2098 108.4C56.2114 108.401 56.213 108.401 56.2146 108.401Z" fill="white"/>
<path fill-rule="evenodd" clip-rule="evenodd" d="M33.1446 105.398H33.1593L33.1799 105.399L33.1922 105.4L33.2056 105.402L33.2141 105.403L33.2306 105.406L33.2401 105.408L33.2519 105.411L33.2644 105.415L33.2859 105.422L33.3027 105.428L33.3189 105.435L33.3296 105.44L33.3446 105.448L33.3595 105.456L33.3675 105.461L33.383 105.471L33.3919 105.477L33.4004 105.484L33.412 105.493L33.4253 105.505L33.4378 105.516L33.4414 105.52L33.45 105.529L33.462 105.543L33.4678 105.55L33.4769 105.562L33.4826 105.57L33.488 105.578L33.4947 105.588L33.5027 105.602C33.5052 105.606 33.5076 105.611 33.5099 105.615C33.512 105.619 33.514 105.624 33.5159 105.628C33.5218 105.641 33.527 105.654 33.5314 105.667C33.5329 105.672 33.5343 105.677 33.5356 105.681C33.5397 105.696 33.5429 105.71 33.5451 105.725L33.5471 105.741L33.5477 105.747C33.5484 105.755 33.5488 105.762 33.549 105.77L33.5492 105.78V107.672L33.549 107.683L33.5483 107.697L33.5474 107.708L33.5462 107.719L33.5449 107.728C33.5441 107.733 33.5433 107.738 33.5423 107.743L33.5404 107.751L33.5376 107.763L33.5348 107.774C33.5329 107.78 33.5308 107.787 33.5285 107.793C33.5265 107.799 33.5244 107.804 33.5223 107.809L33.5157 107.825C33.5128 107.831 33.5099 107.837 33.5067 107.843L33.5029 107.85L33.4951 107.863L33.4879 107.874L33.4826 107.882C33.4787 107.888 33.4748 107.893 33.4707 107.898L33.4587 107.913L33.4482 107.925L33.4408 107.932L33.4303 107.943L33.4156 107.956L33.4082 107.962L33.3966 107.971L33.3897 107.976L33.3835 107.98L33.3828 107.981C33.3369 108.025 33.2791 108.059 33.2125 108.078L33.199 108.082L30.6711 108.721C30.6521 108.726 30.5595 108.745 30.4712 108.745C30.3791 108.745 30.2911 108.726 30.2713 108.721L27.7434 108.082C27.6756 108.065 27.6164 108.032 27.569 107.99L27.5589 107.98L27.5527 107.976L27.5392 107.966L27.5268 107.956L27.5231 107.953C27.5157 107.946 27.5085 107.939 27.5016 107.932L27.4907 107.921L27.4792 107.908L27.478 107.906C27.4738 107.901 27.4697 107.896 27.4657 107.89L27.4562 107.877L27.4473 107.863L27.4434 107.857C27.4408 107.852 27.4382 107.847 27.4357 107.843L27.4311 107.834L27.4244 107.819L27.4235 107.817C27.4201 107.809 27.4169 107.801 27.414 107.793L27.4107 107.783L27.4066 107.77L27.4041 107.76C27.4026 107.754 27.4013 107.748 27.4001 107.743C27.3992 107.738 27.3983 107.733 27.3975 107.728L27.3958 107.715L27.3944 107.701L27.3939 107.694L27.3934 107.683L27.3933 107.672V105.78C27.3933 105.773 27.3934 105.766 27.3938 105.76L27.3942 105.753L27.3953 105.741C27.3975 105.72 27.4014 105.7 27.4068 105.681C27.4081 105.677 27.4095 105.672 27.411 105.667C27.4154 105.654 27.4206 105.641 27.4265 105.628C27.4284 105.624 27.4304 105.619 27.4325 105.615L27.436 105.608L27.4429 105.596L27.4501 105.584L27.4557 105.576L27.4598 105.57L27.4691 105.557L27.4743 105.55L27.4796 105.544L27.4841 105.538L27.4924 105.529L27.5046 105.516L27.5151 105.506L27.5304 105.493L27.542 105.484L27.555 105.474L27.568 105.465L27.5749 105.461L27.584 105.455L27.5999 105.446L27.6128 105.44L27.6235 105.435L27.6397 105.428L27.6593 105.421L27.6754 105.416L27.6905 105.411L27.7047 105.408L27.7198 105.405L27.7283 105.403L27.7421 105.401L27.7566 105.4L27.7686 105.399L27.7831 105.398H27.7978H27.8081C27.813 105.398 27.8179 105.398 27.8228 105.398L27.8338 105.399C27.8433 105.4 27.8528 105.401 27.8621 105.403L27.8785 105.405L27.8909 105.408L27.9048 105.411L27.9166 105.414L27.9292 105.418L27.9445 105.424L27.9516 105.426L27.9692 105.434L27.9874 105.442L27.9992 105.448L28.0137 105.457L28.0241 105.463L28.0336 105.469L28.0438 105.476L28.0533 105.484L28.063 105.491L28.0765 105.503L28.0872 105.513L28.1013 105.527L28.1119 105.539L28.1185 105.547L28.1308 105.563L28.138 105.573L28.1464 105.586L28.155 105.6L28.1559 105.602C28.1583 105.606 28.1607 105.611 28.163 105.615L28.1663 105.622L28.1736 105.638L28.1771 105.646L28.1806 105.656L28.1816 105.659C28.1842 105.666 28.1866 105.673 28.1887 105.681C28.1925 105.694 28.1955 105.708 28.1978 105.722C28.199 105.73 28.2001 105.738 28.2008 105.746C28.2015 105.754 28.2019 105.761 28.2022 105.768L28.2023 105.78V107.365L30.4712 107.939L32.7401 107.365V105.78C32.7401 105.768 32.7406 105.757 32.7416 105.746C32.7424 105.738 32.7434 105.73 32.7447 105.722C32.7469 105.708 32.7499 105.694 32.7537 105.681C32.7559 105.673 32.7582 105.666 32.7608 105.659L32.7628 105.653L32.7654 105.646L32.7721 105.63L32.773 105.629C32.775 105.624 32.7772 105.62 32.7795 105.615L32.7829 105.608L32.7911 105.594L32.7975 105.583L32.8044 105.573L32.8136 105.56L32.8195 105.552L32.824 105.547L32.8305 105.539L32.8411 105.527L32.8533 105.515L32.8659 105.503L32.8699 105.499L32.8794 105.491L32.892 105.481L32.9034 105.473L32.9138 105.466L32.9256 105.458L32.9339 105.454L32.947 105.446L32.9606 105.439L32.9706 105.435L32.9838 105.429L32.9908 105.426L33.0037 105.422L33.0185 105.417L33.0292 105.413L33.0467 105.409L33.0612 105.406L33.0664 105.405C33.0802 105.402 33.0943 105.4 33.1087 105.399L33.1197 105.398C33.1245 105.398 33.1294 105.398 33.1343 105.398H33.1446ZM29.8159 106.245L29.8174 106.244H31.125L31.1266 106.245L31.1315 106.244L31.1367 106.245C31.2164 106.247 31.2803 106.309 31.2803 106.385C31.2803 106.402 31.2771 106.418 31.2714 106.433C31.1826 106.764 30.8659 107.008 30.4888 107.008H30.4712H30.4536C30.0765 107.008 29.7598 106.764 29.671 106.433C29.6653 106.418 29.6621 106.402 29.6621 106.385C29.6621 106.309 29.726 106.247 29.8058 106.245L29.8109 106.244L29.8159 106.245ZM31.632 104.717C31.9332 104.717 32.1773 104.947 32.1773 105.232C32.1773 105.516 31.9332 105.746 31.632 105.746C31.3309 105.746 31.0868 105.516 31.0868 105.232C31.0868 104.947 31.3309 104.717 31.632 104.717ZM29.3456 104.717C29.6467 104.717 29.8908 104.947 29.8908 105.232C29.8908 105.516 29.6467 105.746 29.3456 105.746C29.0444 105.746 28.8003 105.516 28.8003 105.232C28.8003 104.947 29.0444 104.717 29.3456 104.717ZM30.4712 100.832H30.4828C30.8272 100.838 31.1044 101.103 31.1044 101.43C31.1044 101.526 31.0805 101.616 31.0382 101.696C31.0123 101.745 30.9797 101.79 30.9413 101.83L30.933 101.839C30.9218 101.85 30.9102 101.861 30.8981 101.871L30.889 101.879C30.8767 101.889 30.864 101.899 30.8509 101.908L30.841 101.915L30.8326 101.921L30.8208 101.928L30.8105 101.935L30.8021 101.939L30.7937 101.944C30.7907 101.946 30.7878 101.948 30.7848 101.949C30.7684 101.958 30.7517 101.966 30.7345 101.974L30.7231 101.978L30.7165 101.981C30.7059 101.985 30.6951 101.989 30.6842 101.993L30.6765 101.995L30.6647 101.999V102.575L33.2445 103.227C33.4049 103.268 33.5167 103.394 33.5398 103.539C33.541 103.544 33.542 103.549 33.5429 103.554C33.5453 103.567 33.547 103.58 33.548 103.593L33.5489 103.609L33.5492 103.615V104.717L33.549 104.727C33.5484 104.75 33.5455 104.773 33.5406 104.796C33.5387 104.804 33.5365 104.813 33.534 104.821C33.5291 104.837 33.523 104.853 33.5159 104.869C33.514 104.873 33.512 104.877 33.5099 104.881L33.5066 104.888L33.4992 104.901L33.4929 104.911L33.4868 104.921L33.4826 104.927L33.4734 104.94L33.4685 104.946L33.4583 104.958L33.45 104.967L33.4378 104.98L33.4274 104.99L33.4134 105.002L33.4004 105.013L33.3907 105.02L33.3744 105.031L33.3675 105.036L33.3584 105.041L33.3425 105.05L33.3296 105.057L33.3189 105.062L33.3078 105.067L33.2944 105.072L33.2835 105.076L33.2672 105.081L33.2547 105.085L33.2377 105.089L33.2226 105.092L33.2141 105.093L33.2003 105.095L33.1858 105.097L33.1738 105.098L33.1593 105.099H33.1446H33.1343L33.1197 105.098L33.1086 105.097C33.0991 105.097 33.0896 105.095 33.0803 105.094L33.0639 105.091L33.0515 105.089L33.0376 105.085L33.0258 105.082L33.0133 105.078L32.9979 105.073L32.9908 105.07L32.9732 105.063L32.9551 105.054L32.9413 105.047L32.9287 105.04L32.9183 105.034L32.9088 105.027L32.8986 105.02L32.8891 105.013L32.8793 105.005L32.8658 104.994L32.8552 104.984L32.8411 104.969L32.8297 104.957L32.8236 104.949L32.8116 104.934L32.8044 104.924L32.7956 104.91L32.7872 104.896L32.7862 104.894C32.7839 104.89 32.7816 104.886 32.7795 104.882C32.7772 104.877 32.775 104.873 32.773 104.868L32.7703 104.862L32.7678 104.856C32.7661 104.852 32.7644 104.848 32.7628 104.843C32.7612 104.839 32.7596 104.835 32.7581 104.83C32.7544 104.819 32.7512 104.807 32.7486 104.795C32.7442 104.775 32.7414 104.754 32.7404 104.733L32.7401 104.717V103.924L30.4712 103.35L28.2023 103.924V104.717C28.2023 104.744 28.1994 104.77 28.1938 104.795C28.1912 104.807 28.188 104.819 28.1843 104.83C28.1828 104.835 28.1813 104.839 28.1796 104.843L28.1772 104.85L28.1721 104.862L28.1695 104.868C28.1674 104.873 28.1652 104.877 28.163 104.882L28.1597 104.888L28.1519 104.902L28.1449 104.913L28.138 104.924L28.1288 104.937L28.1234 104.944L28.1188 104.949L28.1112 104.958L28.1013 104.969L28.0891 104.982L28.0766 104.994L28.0727 104.997L28.0631 105.005L28.0468 105.018L28.0363 105.025L28.0241 105.034L28.0108 105.042L28.0036 105.046L27.9895 105.053L27.9778 105.059L27.9635 105.066L27.9586 105.068L27.9516 105.07L27.9388 105.075L27.9239 105.08L27.9132 105.083L27.8958 105.088L27.8812 105.091L27.8761 105.092C27.8622 105.094 27.8481 105.096 27.8338 105.097L27.8185 105.098L27.8081 105.099H27.7978H27.7831L27.7626 105.097L27.7502 105.096L27.7368 105.095L27.7283 105.093L27.7119 105.09L27.7024 105.088L27.6905 105.085L27.6752 105.081L27.6565 105.075L27.6397 105.069L27.6235 105.062L27.6128 105.057L27.5978 105.049L27.583 105.041L27.5749 105.036L27.5594 105.026L27.5505 105.019L27.542 105.013L27.5276 105.001L27.515 104.99L27.5046 104.98L27.501 104.976L27.4924 104.967L27.479 104.952L27.474 104.946L27.4655 104.935L27.4598 104.927L27.4524 104.916L27.4447 104.904L27.4392 104.894C27.4369 104.89 27.4347 104.886 27.4325 104.881C27.4304 104.877 27.4284 104.873 27.4265 104.869C27.4194 104.853 27.4134 104.837 27.4085 104.821C27.4059 104.813 27.4037 104.804 27.4018 104.795C27.3969 104.773 27.394 104.75 27.3934 104.727L27.3933 104.717V103.615L27.3936 103.606C27.3943 103.588 27.3963 103.571 27.3995 103.554L27.4012 103.546L27.4026 103.539C27.4252 103.397 27.5326 103.273 27.6873 103.23L27.6979 103.227L30.2777 102.575V101.999L30.2738 101.998C30.2685 101.996 30.2633 101.995 30.2582 101.993C30.2473 101.989 30.2365 101.985 30.2259 101.981L30.2193 101.978L30.2079 101.974C30.1907 101.966 30.174 101.958 30.1577 101.949L30.1487 101.944C30.1431 101.941 30.1375 101.938 30.132 101.935L30.1184 101.926C30.1126 101.923 30.107 101.919 30.1014 101.915L30.0915 101.908C30.0784 101.899 30.0657 101.889 30.0534 101.879L30.0443 101.871C30.0322 101.861 30.0206 101.85 30.0094 101.839L30.0011 101.83C29.9628 101.79 29.9301 101.745 29.9043 101.696C29.8619 101.616 29.838 101.526 29.838 101.43C29.838 101.1 30.1215 100.832 30.4712 100.832ZM34.2703 104.667H34.2806C34.4958 104.672 34.6692 104.836 34.6747 105.039L34.6748 105.049V105.414C34.6748 105.622 34.4992 105.791 34.2806 105.796H34.2703C34.0469 105.796 33.8657 105.625 33.8657 105.414V105.049C33.8657 104.838 34.0469 104.667 34.2703 104.667ZM26.6721 105.796C26.4487 105.796 26.2676 105.625 26.2676 105.414V105.049C26.2676 104.838 26.4487 104.667 26.6721 104.667H26.6824C26.8976 104.672 27.0711 104.836 27.0765 105.039L27.0767 105.049V105.414C27.0767 105.622 26.9011 105.791 26.6824 105.796H26.6721Z" fill="url(#paint0_radial_440_978)"/>
</g>
<path d="M74.8577 36.7978C72.5857 44.9361 66.0897 43.3211 59.8177 41.3578C37.7057 34.4228 41.5137 55.6078 41.2257 55.2278C40.5217 53.8978 39.0177 52.2511 36.1697 52.5994C32.4577 53.0744 30.9537 61.2128 37.8977 64.5694C37.7377 66.0261 36.6817 67.2611 35.4657 68.1478C32.2017 65.4244 27.1457 60.1678 25.2577 52.5678C24.5537 49.7811 24.8417 47.4694 25.1297 45.6644C26.0577 40.0594 29.5777 38.8878 29.5777 38.8878C29.7057 32.9661 35.9457 26.4428 46.4417 26.6644C56.9697 26.8228 77.1297 28.6594 74.8577 36.7978Z" fill="#423232"/>
<path d="M75.1134 46.5829C74.7934 48.6412 73.8974 50.2246 72.6494 51.3962C73.1294 47.9446 72.8734 46.2979 72.4574 44.3662C71.5614 40.4079 69.6414 36.9879 66.4414 34.4546C68.0414 34.3279 69.6734 34.6762 71.1454 35.5946C71.1454 35.5946 73.2574 37.0512 74.0574 41.7379C74.3134 43.0996 75.4014 44.5562 75.1134 46.5829Z" fill="#423232"/>
<path d="M49.002 26.6963C49.002 26.6963 61.162 22.0096 65.45 23.5613C69.002 24.8596 67.722 28.4696 67.722 28.4696C67.722 28.4696 73.802 26.9496 77.098 30.8763C80.394 34.8029 76.586 39.9013 74.41 41.7696C74.41 41.7696 77.834 42.6563 77.482 45.5379C77.066 49.1479 72.618 51.3646 72.618 51.3646C72.618 51.3646 74.154 48.2613 73.93 45.2846C73.706 42.3079 74.058 40.1863 71.85 38.0329C69.642 35.8479 64.394 37.9063 58.73 35.1196C53.098 32.3329 49.002 26.6963 49.002 26.6963Z" fill="#423232"/>
<defs>
<radialGradient id="paint0_radial_440_978" cx="0" cy="0" r="1" gradientUnits="userSpaceOnUse" gradientTransform="translate(30.4712 104.788) rotate(157.06) scale(4.56459 4.38019)">
<stop offset="0.15625" stop-color="#FF8D00"/>
<stop offset="0.536458" stop-color="#FF00FE"/>
<stop offset="1" stop-color="#0094FF"/>
</radialGradient>
</defs>
</svg>
