<svg width="192" height="551" viewBox="0 0 111 111" fill="none" xmlns="http://www.w3.org/2000/svg">
<path d="M101.5 111C70.8222 111 46 86.141 46 55.5C46 24.8222 70.859 0 101.5 0C132.178 0 157 24.859 157 55.5C157.037 86.1778 132.178 111 101.5 111Z" fill="#CCCCCC"/>
<path d="M124 100.637C123.774 100.799 123.517 100.961 123.291 101.123C123.033 101.285 122.808 101.447 122.55 101.577C122.324 101.707 122.131 101.836 121.905 101.966C121.873 101.999 121.841 101.999 121.809 102.031C121.068 102.485 120.294 102.906 119.521 103.295C119.295 103.425 119.037 103.555 118.812 103.652C118.812 103.652 118.78 103.684 118.747 103.684C118.49 103.814 118.232 103.944 117.974 104.073C117.458 104.333 116.911 104.56 116.395 104.786C116.137 104.916 115.847 105.013 115.589 105.111C115.332 105.208 115.042 105.338 114.784 105.435C114.526 105.532 114.236 105.662 113.978 105.759C113.978 105.759 113.978 105.759 113.946 105.759C113.688 105.856 113.398 105.954 113.14 106.051C112.56 106.245 111.948 106.44 111.368 106.634C111.175 106.699 110.949 106.764 110.756 106.829C110.143 107.023 109.531 107.185 108.919 107.315C108.693 107.38 108.468 107.412 108.21 107.477C107.63 107.607 107.018 107.736 106.438 107.866C106.309 107.899 106.212 107.899 106.083 107.931C105.89 107.963 105.664 107.996 105.471 108.028C105.181 108.061 104.923 108.126 104.633 108.158C104.504 108.19 104.375 108.19 104.246 108.223C104.085 108.255 103.892 108.288 103.699 108.288C103.183 108.352 102.635 108.417 102.12 108.482C101.958 108.515 101.765 108.515 101.604 108.547H101.572C101.346 108.579 101.121 108.579 100.895 108.612C100.669 108.644 100.444 108.644 100.218 108.644C100.089 108.644 99.9283 108.677 99.7994 108.677C99.5416 108.677 99.316 108.709 99.0904 108.709C98.7682 108.709 98.4782 108.741 98.1559 108.741C97.8337 108.741 97.5437 108.741 97.2214 108.741C96.9958 108.741 96.7703 108.741 96.5447 108.741C82.9782 108.547 70.7328 102.744 62.0322 93.5375C62.0322 93.5375 62.0322 93.5051 62 93.5051C62.999 91.5276 66.7048 87.9616 70.5717 85.0116C75.4699 81.2836 82.3981 78.9819 82.3981 78.9819C82.3981 78.9819 86.9418 78.2363 103.795 81.7699C116.653 84.4929 122.131 95.5474 124 100.637Z" fill="#AD827B"/>
<path d="M107.372 90.7499C106.696 94.0889 102.313 96.0664 94.9337 93.084C85.8786 89.3883 82.3983 78.9822 82.3983 78.9822C81.915 71.5261 80.7871 65.1398 80.7871 65.1398C91.2601 64.2322 103.634 76.5509 103.634 76.5509L105.052 82.6454C105.181 83.1641 105.439 83.618 105.826 83.9421C106.502 85.1092 107.823 88.6103 107.372 90.7499Z" fill="#AD827B"/>
<path d="M105.825 83.9746C99.6703 83.6504 95.1266 82.7427 90.2607 73.9575C94.3855 77.6207 99.2514 79.0147 104.375 79.663L105.052 82.6455C105.181 83.1966 105.438 83.6504 105.825 83.9746Z" fill="#8E5650"/>
<path d="M118.555 44.911C119.135 47.6341 119.425 49.8385 117.846 57.1001C116.267 64.3617 119.296 71.6233 111.691 78.2689C106.567 82.7426 97.6086 83.5854 90.4548 78.6904C88.0379 77.0371 85.8144 74.7354 84.0098 71.7205C82.592 69.354 80.9485 67.1172 79.1117 65.0749C76.566 62.287 73.5046 56.6787 75.0192 46.7589C77.4683 30.6148 93.355 28.767 102.732 30.55C112.11 32.3329 116.976 37.7143 118.555 44.911Z" fill="#AD827B"/>
<path d="M87.7154 57.5863C87.7154 57.5863 86.7164 52.7236 82.0117 53.3072C77.9514 53.8258 76.5335 63.616 85.7497 66.3391" fill="#AD827B"/>
<path d="M84.8095 59.9586C84.8095 59.9586 83.6494 59.213 83.7783 57.9163C83.9717 56.3927 83.7783 55.4526 83.0694 55.1608C81.2971 54.4152 80.9426 56.4899 81.007 56.7493" stroke="#423232" stroke-width="1.5" stroke-miterlimit="10" stroke-linecap="round" stroke-linejoin="round"/>
<path d="M110.047 65.0424C110.047 65.0424 111.271 65.1073 112.431 63.7133C113.076 62.9353 113.624 61.9628 113.269 61.671C112.915 61.3468 107.082 62.2545 106.695 63.0325C106.309 63.8106 108.564 65.0424 110.047 65.0424Z" fill="#8E605C"/>
<path d="M111.014 54.1501C111.014 54.1501 111.078 57.2298 113.044 60.6661C113.914 62.1898 112.593 64.6859 109.725 65.1074" stroke="#423232" stroke-width="1.5" stroke-miterlimit="10" stroke-linecap="round" stroke-linejoin="round"/>
<rect x="85" y="26" width="30" height="11" fill="#CCCCCC"/>
<path d="M100.131 57.1368C99.3078 57.1025 98.6905 56.4166 98.7591 55.5935L98.7934 54.6332C98.8277 53.8101 99.5136 53.1927 100.337 53.2613C101.16 53.2956 101.777 53.9816 101.709 54.8047L101.674 55.765C101.64 56.5538 100.954 57.1711 100.131 57.1368Z" fill="#423232"/>
<path d="M114.569 57.6515C113.815 57.6172 113.232 56.9656 113.266 56.2111L113.3 55.3194C113.335 54.5648 113.986 53.9818 114.741 54.0161C115.495 54.0504 116.078 54.702 116.044 55.4565L116.01 56.3482C115.975 57.1028 115.324 57.6858 114.569 57.6515Z" fill="#423232"/>
<path d="M103.458 55.1476C103.458 55.1476 102.566 53.8786 101.022 53.6385C99.7535 53.4328 98.3473 54.0501 98.1416 54.7703" stroke="#423232" stroke-width="2" stroke-miterlimit="10" stroke-linecap="round" stroke-linejoin="round"/>
<path d="M113.574 55.4566C113.574 55.4566 113.574 54.3591 115.152 54.3591C116.455 54.3591 117.004 55.5595 117.004 55.5595" stroke="#423232" stroke-width="2" stroke-miterlimit="10" stroke-linecap="round" stroke-linejoin="round"/>
<path d="M104.863 49.6264C105.584 49.8665 106.304 49.2149 106.167 48.4261C106.098 48.0145 105.927 47.6029 105.584 47.2943C104.555 46.3683 100.302 45.5452 97.7297 46.7455C95.4662 47.843 101.571 48.5289 104.863 49.6264Z" fill="#423232"/>
<path d="M115.118 50.175C114.535 50.3808 113.917 49.7635 114.02 49.0432C114.054 48.666 114.192 48.2887 114.466 48.0144C115.289 47.1913 118.101 46.5396 119.885 47.8086C121.428 48.8718 117.793 49.1804 115.118 50.175Z" fill="#423232"/>
<path d="M85.6299 54.0467C85.8076 54.215 85.9679 54.3622 86.1084 54.5671C86.1804 54.6723 86.2012 54.7943 86.2615 54.9029C86.2641 54.9074 86.3239 54.9732 86.3245 54.97C86.3402 54.8795 86.2346 54.7036 86.2049 54.6259C86.1049 54.3645 86.0011 54.1204 85.8691 53.8746C85.7981 53.7423 86.0214 54.1336 86.0979 54.2628C86.2854 54.58 86.4543 54.9104 86.6581 55.2176C86.6755 55.2438 86.7271 55.3188 86.7211 55.2879C86.7044 55.2026 86.6596 55.1252 86.6246 55.0455C86.5128 54.7914 86.2531 54.2433 86.1356 53.9963C86.0624 53.8424 85.9797 53.6926 85.9153 53.5347C85.9089 53.5189 85.9286 53.5247 85.9321 53.5263C85.965 53.5407 85.9979 53.572 86.0265 53.5934" stroke="#F7D3B5" stroke-linecap="round"/>
<path d="M86.1582 53.9336C86.2727 53.9467 86.3154 54.0532 86.366 54.1466C86.4804 54.3578 86.5461 54.5741 86.6881 54.7719C86.8596 55.0108 86.9776 55.2224 87.0647 55.5011" stroke="#F7D3B5" stroke-linecap="round"/>
<path d="M101 72C103.5 74 106.4 75.6 112 72" stroke="#423232" stroke-width="2" stroke-linecap="round"/>
<mask id="mask0_454_866" style="mask-type:alpha" maskUnits="userSpaceOnUse" x="46" y="0" width="111" height="111">
<path d="M101.5 111C70.8221 111 46 86.141 46 55.5C46 24.8222 70.859 0 101.5 0C132.178 0 157 24.859 157 55.5C157.037 86.1778 132.178 111 101.5 111Z" fill="#B56252"/>
</mask>
<g mask="url(#mask0_454_866)">
<path d="M133.05 119.998H54.0156C54.0156 119.998 54.4846 105.877 59.2367 95.8041C62.832 88.1958 71.3044 83.9656 77.6196 81.7744C79.4016 81.1658 81.0273 80.7093 82.2779 80.3745C82.2779 80.5267 82.3091 80.6484 82.3091 80.8006C82.3091 80.8006 85.6856 90.5696 94.4706 94.0389C101.63 96.8692 105.882 94.9824 106.538 91.8478C106.945 89.8392 105.663 86.5524 105.006 85.4872C104.631 85.1829 104.381 84.7264 104.256 84.2699L104.006 83.2656C104.6 83.1439 105.163 82.9917 105.725 82.8091C105.913 82.7483 106.069 82.6874 106.257 82.6265C110.29 83.6613 116.355 86.1263 123.514 91.9695C131.612 98.543 133.05 119.998 133.05 119.998Z" fill="#1B2138"/>
<path d="M91.7509 97.2039C80.965 92.4868 76.7757 84.0569 77.5885 81.7744C77.5885 81.7744 77.5884 81.7439 77.6197 81.7135C78.1824 80.5875 79.0892 79.6745 80.2146 79.0354C80.8399 78.6702 81.5277 78.3354 82.0905 78.1528C82.1217 78.5789 82.2468 79.918 82.278 80.3745C82.278 80.5266 82.3093 80.6483 82.3093 80.8005C82.3093 80.8005 84.3102 88.074 93.0952 91.5434C100.254 94.3737 104.694 92.5173 105.163 89.3522C105.694 85.8524 103.662 83.3265 103.662 83.3265C104.256 83.2047 105.194 82.9917 105.757 82.8091C107.132 84.4221 108.539 86.035 109.071 90.2956C109.821 96.4127 102.912 102.104 91.7509 97.2039Z" fill="#1F2742"/>
<path d="M69.4909 119.998L68.084 108.708" stroke="#544D4D" stroke-width="3" stroke-miterlimit="10" stroke-linecap="round" stroke-linejoin="round"/>
<path d="M124.077 104.873C124.077 104.873 123.139 107.095 123.421 109.316C123.702 111.538 124.515 114.794 123.358 119.998" stroke="#544D4D" stroke-width="2" stroke-miterlimit="10" stroke-linecap="round" stroke-linejoin="round"/>
<path fill-rule="evenodd" clip-rule="evenodd" d="M83.5402 103.671C83.6236 103.666 83.6897 103.601 83.6897 103.521V102.932C83.6897 102.907 83.6829 102.883 83.671 102.861C83.6441 102.814 83.5911 102.782 83.5301 102.782H82.2788H82.2752H82.268C82.1798 102.782 82.1084 102.849 82.1084 102.932V104.11C82.1084 104.193 82.1798 104.26 82.268 104.26C82.3561 104.26 82.4275 104.193 82.4275 104.11V103.672H83.5301L83.5402 103.671ZM82.4275 103.083H83.3705V103.37H82.4275V103.083Z" fill="white"/>
<path d="M85.3861 103.67C85.4648 103.661 85.5256 103.598 85.5256 103.521V102.932C85.5256 102.907 85.5189 102.883 85.5069 102.861C85.4801 102.814 85.4271 102.782 85.3661 102.782H84.1148H84.1112H84.1039C84.0158 102.782 83.9443 102.849 83.9443 102.932V104.11C83.9443 104.193 84.0158 104.26 84.1039 104.26C84.1921 104.26 84.2635 104.193 84.2635 104.11V103.083H85.2065V103.37H84.7924C84.7469 103.367 84.7001 103.381 84.6653 103.414L84.6575 103.422C84.6031 103.481 84.6057 103.571 84.6653 103.627L85.25 104.179C85.3124 104.238 85.4134 104.238 85.4757 104.179L85.4835 104.171C85.5379 104.112 85.5353 104.022 85.4757 103.966L85.164 103.672H85.3661L85.3762 103.671L85.3861 103.67Z" fill="white"/>
<path fill-rule="evenodd" clip-rule="evenodd" d="M85.9481 104.26H85.9553H87.2029H87.2131C87.2965 104.255 87.3625 104.19 87.3625 104.11V102.932C87.3625 102.907 87.3557 102.883 87.3438 102.861C87.317 102.814 87.2639 102.782 87.2029 102.782H85.9517H85.9481H85.9408C85.8526 102.782 85.7812 102.849 85.7812 102.932V104.11C85.7812 104.193 85.8526 104.26 85.9408 104.26C85.9432 104.26 85.9457 104.26 85.9481 104.26ZM86.1003 103.083H87.0434V103.959H86.1003V103.083Z" fill="white"/>
<path d="M89.183 102.904C89.1691 102.834 89.1042 102.782 89.0262 102.782H88.5611C88.473 102.782 88.4015 102.849 88.4015 102.932C88.4015 103.015 88.473 103.083 88.5611 103.083H88.8663V103.959H87.7768C87.6887 103.959 87.6172 104.027 87.6172 104.11C87.6172 104.193 87.6887 104.26 87.7768 104.26H89.0262C89.1144 104.26 89.1858 104.193 89.1858 104.11V102.932C89.1858 102.923 89.1848 102.913 89.183 102.904Z" fill="white"/>
<path d="M92.8459 102.932C92.8459 102.849 92.7744 102.782 92.6863 102.782H91.4369C91.3487 102.782 91.2773 102.849 91.2773 102.932C91.2773 103.015 91.3487 103.083 91.4369 103.083H91.9018V104.11C91.9018 104.193 91.9733 104.26 92.0616 104.26C92.1498 104.26 92.2213 104.193 92.2213 104.11V103.083H92.6863C92.7744 103.083 92.8459 103.015 92.8459 102.932Z" fill="white"/>
<path fill-rule="evenodd" clip-rule="evenodd" d="M93.2674 104.26H93.2747H94.5223H94.5324C94.6159 104.255 94.6819 104.19 94.6819 104.11V102.932C94.6819 102.907 94.6751 102.883 94.6632 102.861C94.6364 102.814 94.5834 102.782 94.5223 102.782H93.271H93.2674H93.2602C93.172 102.782 93.1006 102.849 93.1006 102.932V104.11C93.1006 104.193 93.172 104.26 93.2602 104.26C93.2626 104.26 93.265 104.26 93.2674 104.26ZM93.4198 103.083H94.3627V103.959H93.4198V103.083Z" fill="white"/>
<path d="M89.4404 104.123C89.4404 104.206 89.5112 104.272 89.5984 104.272H90.8638C90.951 104.272 91.0218 104.206 91.0218 104.123C91.0218 104.041 90.951 103.974 90.8638 103.974H89.7567V103.08H90.8638C90.951 103.08 91.0218 103.013 91.0218 102.931C91.0218 102.848 90.951 102.782 90.8638 102.782H89.5984C89.5212 102.782 89.457 102.834 89.4432 102.903C89.4414 102.912 89.4404 102.921 89.4404 102.931V104.123Z" fill="white"/>
<path d="M90.3894 103.527C90.3894 103.445 90.3187 103.378 90.2315 103.378C90.1443 103.378 90.0732 103.445 90.0732 103.527C90.0732 103.609 90.1439 103.676 90.2311 103.676C90.3183 103.676 90.3894 103.609 90.3894 103.527Z" fill="white"/>
<path d="M114.337 105.402L114.336 105.401C114.185 105.319 113.992 105.369 113.905 105.512L112.696 107.499L111.487 105.512L111.48 105.5C111.389 105.366 111.203 105.322 111.056 105.401L111.054 105.402L111.042 105.409C110.9 105.495 110.853 105.672 110.938 105.812L112.415 108.24C112.428 108.263 112.443 108.284 112.462 108.304C112.497 108.34 112.541 108.367 112.588 108.383C112.589 108.383 112.589 108.383 112.59 108.383C112.593 108.384 112.595 108.385 112.598 108.386C112.6 108.387 112.603 108.388 112.605 108.388L112.609 108.389C112.612 108.39 112.616 108.391 112.619 108.392C112.62 108.392 112.62 108.392 112.621 108.392C112.624 108.393 112.628 108.394 112.631 108.394C112.632 108.395 112.633 108.395 112.634 108.395C112.636 108.395 112.639 108.396 112.641 108.396C112.642 108.396 112.643 108.397 112.645 108.397H112.646C112.649 108.398 112.653 108.398 112.656 108.398C112.661 108.399 112.666 108.399 112.67 108.4C112.672 108.4 112.673 108.4 112.674 108.4C112.676 108.4 112.677 108.4 112.679 108.4C112.68 108.4 112.682 108.4 112.683 108.4C112.685 108.401 112.687 108.401 112.688 108.401H112.694H112.701H112.703L112.708 108.4C112.711 108.4 112.714 108.4 112.718 108.4H112.72H112.721C112.726 108.399 112.73 108.399 112.735 108.398C112.739 108.398 112.742 108.397 112.746 108.397H112.747C112.75 108.396 112.754 108.396 112.757 108.395H112.759C112.759 108.395 112.76 108.395 112.76 108.394C112.762 108.394 112.764 108.394 112.766 108.393C112.768 108.393 112.769 108.392 112.771 108.392C112.771 108.392 112.772 108.392 112.773 108.392C112.776 108.391 112.779 108.39 112.783 108.389L112.786 108.388C112.788 108.388 112.789 108.387 112.79 108.387C112.791 108.387 112.792 108.386 112.794 108.386C112.796 108.385 112.799 108.384 112.802 108.383C112.802 108.383 112.803 108.383 112.804 108.383C112.855 108.365 112.902 108.335 112.938 108.294C112.953 108.277 112.966 108.259 112.976 108.24L114.454 105.812C114.541 105.669 114.489 105.485 114.337 105.402Z" fill="white"/>
<path fill-rule="evenodd" clip-rule="evenodd" d="M107.669 105.649C107.662 105.489 107.523 105.362 107.352 105.362H104.807C104.632 105.362 104.49 105.496 104.49 105.661V108.057C104.49 108.223 104.632 108.357 104.807 108.357H107.352C107.528 108.357 107.67 108.223 107.67 108.057V105.662C107.67 105.658 107.67 105.653 107.669 105.649ZM104.49 105.661L104.49 105.65L104.49 105.656V105.661ZM105.126 105.961H107.034V107.758H105.126V105.961Z" fill="white"/>
<path d="M92.5672 105.661C92.5672 105.496 92.4251 105.362 92.2499 105.362H89.705C89.5298 105.362 89.3877 105.496 89.3877 105.661V106.859C89.3877 107.025 89.5298 107.159 89.705 107.159H91.9313V107.758H89.705C89.5298 107.758 89.3877 107.892 89.3877 108.057C89.3877 108.223 89.5298 108.357 89.705 108.357H92.2499C92.4251 108.357 92.5672 108.223 92.5672 108.057V106.86C92.5672 106.856 92.5671 106.852 92.5669 106.847C92.56 106.687 92.4207 106.56 92.2499 106.56H90.0236V105.961H92.2499C92.4251 105.961 92.5672 105.827 92.5672 105.661Z" fill="white"/>
<path d="M96.2614 105.661C96.2614 105.496 96.1193 105.362 95.9441 105.362H93.3992C93.224 105.362 93.082 105.496 93.082 105.661V108.057C93.082 108.223 93.224 108.357 93.3992 108.357H95.9441C96.1193 108.357 96.2614 108.223 96.2614 108.057C96.2614 107.892 96.1193 107.758 95.9441 107.758H93.7178V105.961H95.9441C96.1193 105.961 96.2614 105.827 96.2614 105.661Z" fill="white"/>
<path d="M118.19 105.661C118.19 105.496 118.048 105.362 117.873 105.362H115.328C115.153 105.362 115.011 105.496 115.011 105.661V108.057C115.011 108.223 115.153 108.357 115.328 108.357H117.873C118.048 108.357 118.19 108.223 118.19 108.057C118.19 107.892 118.048 107.758 117.873 107.758H115.647V105.961H117.873C118.048 105.961 118.19 105.827 118.19 105.661Z" fill="white"/>
<path d="M88.9206 105.661C88.9206 105.496 88.7785 105.362 88.6033 105.362H86.0584C85.8832 105.362 85.7412 105.496 85.7412 105.661V108.057C85.7412 108.223 85.8832 108.357 86.0584 108.357H88.6033C88.7785 108.357 88.9206 108.223 88.9206 108.057C88.9206 107.892 88.7785 107.758 88.6033 107.758H86.377V105.961H88.6033C88.7785 105.961 88.9206 105.827 88.9206 105.661Z" fill="white"/>
<path d="M99.9077 105.649C99.9008 105.489 99.7615 105.362 99.5907 105.362H97.0458C96.875 105.362 96.7357 105.489 96.7288 105.649L96.7286 105.656L96.7285 105.661V108.057C96.7285 108.222 96.8709 108.357 97.0465 108.357C97.2221 108.357 97.3644 108.222 97.3644 108.057V105.961H99.2721V108.057C99.2721 108.222 99.4144 108.357 99.59 108.357C99.7656 108.357 99.908 108.222 99.908 108.057V105.662C99.908 105.658 99.9079 105.653 99.9077 105.649Z" fill="white"/>
<path fill-rule="evenodd" clip-rule="evenodd" d="M83.7868 105.403C83.7397 105.377 83.6848 105.362 83.6262 105.362H82.3642C82.189 105.362 82.0469 105.496 82.0469 105.661V108.057C82.0469 108.223 82.189 108.357 82.3642 108.357H83.6262C83.6682 108.357 83.7082 108.349 83.7448 108.335C83.7884 108.321 83.8293 108.297 83.8641 108.264L85.0978 107.103C85.1101 107.095 85.122 107.085 85.1332 107.074C85.1955 107.015 85.2269 106.938 85.2263 106.86C85.2269 106.783 85.1961 106.706 85.1338 106.647L85.1332 106.646C85.122 106.636 85.1101 106.626 85.0978 106.618L83.8641 105.457C83.8407 105.435 83.8146 105.417 83.7868 105.403ZM82.6833 105.961H83.4998L84.4557 106.86L83.5022 107.758H82.6833V105.961Z" fill="white"/>
<path d="M108.819 105.65C108.812 105.49 108.673 105.362 108.501 105.362C108.326 105.362 108.184 105.496 108.184 105.662V108.057L108.184 108.07C108.191 108.229 108.33 108.357 108.501 108.357H111.046L111.059 108.356C111.228 108.35 111.363 108.218 111.363 108.057L111.363 108.045C111.356 107.885 111.217 107.758 111.046 107.758H108.819V105.662L108.819 105.65Z" fill="white"/>
<path d="M94.9894 106.859C94.9894 106.694 94.8474 106.56 94.6721 106.56H94.6708C94.4956 106.56 94.3535 106.694 94.3535 106.859C94.3535 107.025 94.4956 107.159 94.6708 107.159H94.6721C94.8474 107.159 94.9894 107.025 94.9894 106.859Z" fill="white"/>
<path d="M116.918 106.859C116.918 106.694 116.776 106.56 116.601 106.56H116.6C116.424 106.56 116.282 106.694 116.282 106.859C116.282 107.025 116.424 107.159 116.6 107.159H116.601C116.776 107.159 116.918 107.025 116.918 106.859Z" fill="white"/>
<path d="M87.6486 106.859C87.6486 106.694 87.5066 106.56 87.3313 106.56H87.33C87.1548 106.56 87.0127 106.694 87.0127 106.859C87.0127 107.025 87.1548 107.159 87.33 107.159H87.3313C87.5066 107.159 87.6486 107.025 87.6486 106.859Z" fill="white"/>
<path d="M102.215 108.401H102.22H102.224C102.225 108.401 102.226 108.401 102.227 108.401C102.228 108.401 102.229 108.401 102.23 108.401C102.231 108.401 102.233 108.401 102.235 108.4C102.238 108.4 102.241 108.4 102.244 108.4H102.245C102.246 108.4 102.247 108.4 102.248 108.4C102.256 108.399 102.264 108.398 102.272 108.397C102.272 108.397 102.273 108.397 102.273 108.397C102.277 108.396 102.28 108.396 102.284 108.395C102.285 108.395 102.286 108.395 102.287 108.394C102.29 108.394 102.294 108.393 102.297 108.392C102.298 108.392 102.298 108.392 102.299 108.392C102.302 108.391 102.306 108.39 102.309 108.389L102.313 108.388C102.315 108.388 102.317 108.387 102.32 108.386C102.323 108.385 102.325 108.384 102.328 108.383C102.328 108.383 102.329 108.383 102.329 108.383C102.381 108.365 102.428 108.335 102.465 108.294C102.479 108.277 102.492 108.259 102.503 108.24L103.98 105.812C104.067 105.669 104.015 105.485 103.864 105.402L103.862 105.401C103.711 105.319 103.518 105.369 103.431 105.512L102.222 107.499L101.013 105.512C100.926 105.369 100.733 105.319 100.582 105.401L100.581 105.402C100.429 105.485 100.377 105.669 100.464 105.812L101.941 108.24C101.954 108.263 101.97 108.284 101.989 108.304C102.024 108.34 102.067 108.367 102.114 108.383C102.115 108.383 102.116 108.383 102.116 108.383C102.119 108.384 102.122 108.385 102.124 108.386C102.127 108.387 102.129 108.388 102.132 108.388L102.135 108.389C102.136 108.389 102.137 108.39 102.138 108.39C102.141 108.391 102.143 108.391 102.145 108.392C102.146 108.392 102.146 108.392 102.147 108.392C102.149 108.393 102.151 108.393 102.153 108.393C102.154 108.394 102.156 108.394 102.158 108.394C102.159 108.395 102.16 108.395 102.161 108.395C102.164 108.396 102.168 108.396 102.171 108.397C102.172 108.397 102.172 108.397 102.172 108.397C102.18 108.398 102.188 108.399 102.197 108.4C102.198 108.4 102.199 108.4 102.2 108.4C102.204 108.4 102.207 108.4 102.21 108.4C102.211 108.401 102.213 108.401 102.215 108.401Z" fill="white"/>
<path fill-rule="evenodd" clip-rule="evenodd" d="M79.1446 105.398H79.1593L79.1799 105.399L79.1922 105.4L79.2056 105.402L79.2141 105.403L79.2306 105.406L79.2401 105.408L79.2519 105.411L79.2644 105.415L79.2859 105.422L79.3027 105.428L79.3189 105.435L79.3296 105.44L79.3446 105.448L79.3595 105.456L79.3675 105.461L79.383 105.471L79.3919 105.477L79.4004 105.484L79.412 105.493L79.4253 105.505L79.4378 105.516L79.4414 105.52L79.45 105.529L79.462 105.543L79.4678 105.55L79.4769 105.562L79.4826 105.57L79.488 105.578L79.4947 105.588L79.5027 105.602C79.5052 105.606 79.5076 105.611 79.5099 105.615C79.512 105.619 79.514 105.624 79.5159 105.628C79.5218 105.641 79.527 105.654 79.5314 105.667C79.5329 105.672 79.5343 105.677 79.5356 105.681C79.5397 105.696 79.5429 105.71 79.5451 105.725L79.5471 105.741L79.5477 105.747C79.5484 105.755 79.5488 105.762 79.549 105.77L79.5492 105.78V107.672L79.549 107.683L79.5483 107.697L79.5474 107.708L79.5462 107.719L79.5449 107.728C79.5441 107.733 79.5433 107.738 79.5423 107.743L79.5404 107.751L79.5376 107.763L79.5348 107.774C79.5329 107.78 79.5308 107.787 79.5285 107.793C79.5265 107.799 79.5244 107.804 79.5223 107.809L79.5157 107.825C79.5128 107.831 79.5099 107.837 79.5067 107.843L79.5029 107.85L79.4951 107.863L79.4879 107.874L79.4826 107.882C79.4787 107.888 79.4748 107.893 79.4707 107.898L79.4587 107.913L79.4482 107.925L79.4408 107.932L79.4303 107.943L79.4156 107.956L79.4082 107.962L79.3966 107.971L79.3897 107.976L79.3835 107.98L79.3828 107.981C79.3369 108.025 79.2791 108.059 79.2125 108.078L79.199 108.082L76.6711 108.721C76.6521 108.726 76.5595 108.745 76.4712 108.745C76.3791 108.745 76.2911 108.726 76.2713 108.721L73.7434 108.082C73.6756 108.065 73.6164 108.032 73.569 107.99L73.5589 107.98L73.5527 107.976L73.5392 107.966L73.5268 107.956L73.5231 107.953C73.5157 107.946 73.5085 107.939 73.5016 107.932L73.4907 107.921L73.4792 107.908L73.478 107.906C73.4738 107.901 73.4697 107.896 73.4657 107.89L73.4562 107.877L73.4473 107.863L73.4434 107.857C73.4408 107.852 73.4382 107.847 73.4357 107.843L73.4311 107.834L73.4244 107.819L73.4235 107.817C73.4201 107.809 73.4169 107.801 73.414 107.793L73.4107 107.783L73.4066 107.77L73.4041 107.76C73.4026 107.754 73.4013 107.748 73.4001 107.743C73.3992 107.738 73.3983 107.733 73.3975 107.728L73.3958 107.715L73.3944 107.701L73.3939 107.694L73.3934 107.683L73.3933 107.672V105.78C73.3933 105.773 73.3934 105.766 73.3938 105.76L73.3942 105.753L73.3953 105.741C73.3975 105.72 73.4014 105.7 73.4068 105.681C73.4081 105.677 73.4095 105.672 73.411 105.667C73.4154 105.654 73.4206 105.641 73.4265 105.628C73.4284 105.624 73.4304 105.619 73.4325 105.615L73.436 105.608L73.4429 105.596L73.4501 105.584L73.4557 105.576L73.4598 105.57L73.4691 105.557L73.4743 105.55L73.4796 105.544L73.4841 105.538L73.4924 105.529L73.5046 105.516L73.5151 105.506L73.5304 105.493L73.542 105.484L73.555 105.474L73.568 105.465L73.5749 105.461L73.584 105.455L73.5999 105.446L73.6128 105.44L73.6235 105.435L73.6397 105.428L73.6593 105.421L73.6754 105.416L73.6905 105.411L73.7047 105.408L73.7198 105.405L73.7283 105.403L73.7421 105.401L73.7566 105.4L73.7686 105.399L73.7831 105.398H73.7978H73.8081C73.813 105.398 73.8179 105.398 73.8228 105.398L73.8338 105.399C73.8433 105.4 73.8528 105.401 73.8621 105.403L73.8785 105.405L73.8909 105.408L73.9048 105.411L73.9166 105.414L73.9292 105.418L73.9445 105.424L73.9516 105.426L73.9692 105.434L73.9874 105.442L73.9992 105.448L74.0137 105.457L74.0241 105.463L74.0336 105.469L74.0438 105.476L74.0533 105.484L74.063 105.491L74.0765 105.503L74.0872 105.513L74.1013 105.527L74.1119 105.539L74.1185 105.547L74.1308 105.563L74.138 105.573L74.1464 105.586L74.155 105.6L74.1559 105.602C74.1583 105.606 74.1607 105.611 74.163 105.615L74.1663 105.622L74.1736 105.638L74.1771 105.646L74.1806 105.656L74.1816 105.659C74.1842 105.666 74.1866 105.673 74.1887 105.681C74.1925 105.694 74.1955 105.708 74.1978 105.722C74.199 105.73 74.2001 105.738 74.2008 105.746C74.2015 105.754 74.2019 105.761 74.2022 105.768L74.2023 105.78V107.365L76.4712 107.939L78.7401 107.365V105.78C78.7401 105.768 78.7406 105.757 78.7416 105.746C78.7424 105.738 78.7434 105.73 78.7447 105.722C78.7469 105.708 78.7499 105.694 78.7537 105.681C78.7559 105.673 78.7582 105.666 78.7608 105.659L78.7628 105.653L78.7654 105.646L78.7721 105.63L78.773 105.629C78.775 105.624 78.7772 105.62 78.7795 105.615L78.7829 105.608L78.7911 105.594L78.7975 105.583L78.8044 105.573L78.8136 105.56L78.8195 105.552L78.824 105.547L78.8305 105.539L78.8411 105.527L78.8533 105.515L78.8659 105.503L78.8699 105.499L78.8794 105.491L78.892 105.481L78.9034 105.473L78.9138 105.466L78.9256 105.458L78.9339 105.454L78.947 105.446L78.9606 105.439L78.9706 105.435L78.9838 105.429L78.9908 105.426L79.0037 105.422L79.0185 105.417L79.0292 105.413L79.0467 105.409L79.0612 105.406L79.0664 105.405C79.0802 105.402 79.0943 105.4 79.1087 105.399L79.1197 105.398C79.1245 105.398 79.1294 105.398 79.1343 105.398H79.1446ZM75.8159 106.245L75.8174 106.244H77.125L77.1266 106.245L77.1315 106.244L77.1367 106.245C77.2164 106.247 77.2803 106.309 77.2803 106.385C77.2803 106.402 77.2771 106.418 77.2714 106.433C77.1826 106.764 76.8659 107.008 76.4888 107.008H76.4712H76.4536C76.0765 107.008 75.7598 106.764 75.671 106.433C75.6653 106.418 75.6621 106.402 75.6621 106.385C75.6621 106.309 75.726 106.247 75.8058 106.245L75.8109 106.244L75.8159 106.245ZM77.632 104.717C77.9332 104.717 78.1773 104.947 78.1773 105.232C78.1773 105.516 77.9332 105.746 77.632 105.746C77.3309 105.746 77.0868 105.516 77.0868 105.232C77.0868 104.947 77.3309 104.717 77.632 104.717ZM75.3456 104.717C75.6467 104.717 75.8908 104.947 75.8908 105.232C75.8908 105.516 75.6467 105.746 75.3456 105.746C75.0444 105.746 74.8003 105.516 74.8003 105.232C74.8003 104.947 75.0444 104.717 75.3456 104.717ZM76.4712 100.832H76.4828C76.8272 100.838 77.1044 101.103 77.1044 101.43C77.1044 101.526 77.0805 101.616 77.0382 101.696C77.0123 101.745 76.9797 101.79 76.9413 101.83L76.933 101.839C76.9218 101.85 76.9102 101.861 76.8981 101.871L76.889 101.879C76.8767 101.889 76.864 101.899 76.8509 101.908L76.841 101.915L76.8326 101.921L76.8208 101.928L76.8105 101.935L76.8021 101.939L76.7937 101.944C76.7907 101.946 76.7878 101.948 76.7848 101.949C76.7684 101.958 76.7517 101.966 76.7345 101.974L76.7231 101.978L76.7165 101.981C76.7059 101.985 76.6951 101.989 76.6842 101.993L76.6765 101.995L76.6647 101.999V102.575L79.2445 103.227C79.4049 103.268 79.5167 103.394 79.5398 103.539C79.541 103.544 79.542 103.549 79.5429 103.554C79.5453 103.567 79.547 103.58 79.548 103.593L79.5489 103.609L79.5492 103.615V104.717L79.549 104.727C79.5484 104.75 79.5455 104.773 79.5406 104.796C79.5387 104.804 79.5365 104.813 79.534 104.821C79.5291 104.837 79.523 104.853 79.5159 104.869C79.514 104.873 79.512 104.877 79.5099 104.881L79.5066 104.888L79.4992 104.901L79.4929 104.911L79.4868 104.921L79.4826 104.927L79.4734 104.94L79.4685 104.946L79.4583 104.958L79.45 104.967L79.4378 104.98L79.4274 104.99L79.4134 105.002L79.4004 105.013L79.3907 105.02L79.3744 105.031L79.3675 105.036L79.3584 105.041L79.3425 105.05L79.3296 105.057L79.3189 105.062L79.3078 105.067L79.2944 105.072L79.2835 105.076L79.2672 105.081L79.2547 105.085L79.2377 105.089L79.2226 105.092L79.2141 105.093L79.2003 105.095L79.1858 105.097L79.1738 105.098L79.1593 105.099H79.1446H79.1343L79.1197 105.098L79.1086 105.097C79.0991 105.097 79.0896 105.095 79.0803 105.094L79.0639 105.091L79.0515 105.089L79.0376 105.085L79.0258 105.082L79.0133 105.078L78.9979 105.073L78.9908 105.07L78.9732 105.063L78.9551 105.054L78.9413 105.047L78.9287 105.04L78.9183 105.034L78.9088 105.027L78.8986 105.02L78.8891 105.013L78.8793 105.005L78.8658 104.994L78.8552 104.984L78.8411 104.969L78.8297 104.957L78.8236 104.949L78.8116 104.934L78.8044 104.924L78.7956 104.91L78.7872 104.896L78.7862 104.894C78.7839 104.89 78.7816 104.886 78.7795 104.882C78.7772 104.877 78.775 104.873 78.773 104.868L78.7703 104.862L78.7678 104.856C78.7661 104.852 78.7644 104.848 78.7628 104.843C78.7612 104.839 78.7596 104.835 78.7581 104.83C78.7544 104.819 78.7512 104.807 78.7486 104.795C78.7442 104.775 78.7414 104.754 78.7404 104.733L78.7401 104.717V103.924L76.4712 103.35L74.2023 103.924V104.717C74.2023 104.744 74.1994 104.77 74.1938 104.795C74.1912 104.807 74.188 104.819 74.1843 104.83C74.1828 104.835 74.1813 104.839 74.1796 104.843L74.1772 104.85L74.1721 104.862L74.1695 104.868C74.1674 104.873 74.1652 104.877 74.163 104.882L74.1597 104.888L74.1519 104.902L74.1449 104.913L74.138 104.924L74.1288 104.937L74.1234 104.944L74.1188 104.949L74.1112 104.958L74.1013 104.969L74.0891 104.982L74.0766 104.994L74.0727 104.997L74.0631 105.005L74.0468 105.018L74.0363 105.025L74.0241 105.034L74.0108 105.042L74.0036 105.046L73.9895 105.053L73.9778 105.059L73.9635 105.066L73.9586 105.068L73.9516 105.07L73.9388 105.075L73.9239 105.08L73.9132 105.083L73.8958 105.088L73.8812 105.091L73.8761 105.092C73.8622 105.094 73.8481 105.096 73.8338 105.097L73.8185 105.098L73.8081 105.099H73.7978H73.7831L73.7626 105.097L73.7502 105.096L73.7368 105.095L73.7283 105.093L73.7119 105.09L73.7024 105.088L73.6905 105.085L73.6752 105.081L73.6565 105.075L73.6397 105.069L73.6235 105.062L73.6128 105.057L73.5978 105.049L73.583 105.041L73.5749 105.036L73.5594 105.026L73.5505 105.019L73.542 105.013L73.5276 105.001L73.515 104.99L73.5046 104.98L73.501 104.976L73.4924 104.967L73.479 104.952L73.474 104.946L73.4655 104.935L73.4598 104.927L73.4524 104.916L73.4447 104.904L73.4392 104.894C73.4369 104.89 73.4347 104.886 73.4325 104.881C73.4304 104.877 73.4284 104.873 73.4265 104.869C73.4194 104.853 73.4134 104.837 73.4085 104.821C73.4059 104.813 73.4037 104.804 73.4018 104.795C73.3969 104.773 73.394 104.75 73.3934 104.727L73.3933 104.717V103.615L73.3936 103.606C73.3943 103.588 73.3963 103.571 73.3995 103.554L73.4012 103.546L73.4026 103.539C73.4252 103.397 73.5326 103.273 73.6873 103.23L73.6979 103.227L76.2777 102.575V101.999L76.2738 101.998C76.2685 101.996 76.2633 101.995 76.2582 101.993C76.2473 101.989 76.2365 101.985 76.2259 101.981L76.2193 101.978L76.2079 101.974C76.1907 101.966 76.174 101.958 76.1577 101.949L76.1487 101.944C76.1431 101.941 76.1375 101.938 76.132 101.935L76.1184 101.926C76.1126 101.923 76.107 101.919 76.1014 101.915L76.0915 101.908C76.0784 101.899 76.0657 101.889 76.0534 101.879L76.0443 101.871C76.0322 101.861 76.0206 101.85 76.0094 101.839L76.0011 101.83C75.9628 101.79 75.9301 101.745 75.9043 101.696C75.8619 101.616 75.838 101.526 75.838 101.43C75.838 101.1 76.1215 100.832 76.4712 100.832ZM80.2703 104.667H80.2806C80.4958 104.672 80.6692 104.836 80.6747 105.039L80.6748 105.049V105.414C80.6748 105.622 80.4992 105.791 80.2806 105.796H80.2703C80.0469 105.796 79.8657 105.625 79.8657 105.414V105.049C79.8657 104.838 80.0469 104.667 80.2703 104.667ZM72.6721 105.796C72.4487 105.796 72.2676 105.625 72.2676 105.414V105.049C72.2676 104.838 72.4487 104.667 72.6721 104.667H72.6824C72.8976 104.672 73.0711 104.836 73.0765 105.039L73.0767 105.049V105.414C73.0767 105.622 72.9011 105.791 72.6824 105.796H72.6721Z" fill="url(#paint0_radial_454_866)"/>
<path d="M86 65L81 67.5L78.5 64.5L77 62.5L76.5 61L84.5 63.5L86 65Z" fill="#99807F"/>
</g>
<path d="M108.75 68.1391C108.75 68.1391 107.851 66.613 104.524 67.5596C102.387 68.1778 100.299 69.1437 99.1328 68.1391C99.1328 68.1391 99.74 70.6505 103.529 71.1914C108.191 71.8289 109.187 69.2789 108.75 68.1391Z" fill="#423232"/>
<path d="M108.555 67.9073C108.555 67.9073 109.94 66.8641 111.275 67.8494C112.49 68.738 113.073 68.8732 113.51 68.3323C113.51 68.3323 113.607 70.4573 111.494 70.7278C109.187 71.0369 108.337 69.5687 108.337 69.5687" fill="#423232"/>
<path d="M112 78.5C112 78.5106 112 78.5106 112 78.5C111.978 78.5106 111.978 78.5106 112 78.5C111.451 79.1878 110.551 80.1338 109.015 80.7793C105.349 82.3193 98.5 83 94.5482 80.9169C93.9994 80.737 93.4726 80.5359 92.9677 80.3137C92.6165 80.1021 92.3091 79.8798 92.0457 79.647C90.4652 78.2185 91.1457 76.8851 91.1457 76.8851C91.1457 76.8851 92.0457 76.8957 93.1214 77.9116C94.0214 78.7581 98.0731 79.8374 99.5 78.2501C101.081 76.4829 104.449 76.1444 105.349 76.3137C106.249 76.483 107.654 76.483 107.654 76.483C111.21 76.4619 110.134 77.6153 110.507 78.2502C111.056 79.1179 112 78.5 112 78.5Z" fill="#423232"/>
<ellipse cx="86.5" cy="54" rx="2.5" ry="3" fill="#AD827B"/>
<path d="M118 44.1001C117.936 43.8745 117.84 43.649 117.776 43.4046C117.424 42.4836 116.912 41.6189 116.24 40.8107L112.464 41.7317C111.376 41.9948 110.16 42.07 108.976 41.9573L93.9997 40.4347C92.1757 40.2468 90.4157 40.867 89.8077 41.8821C89.3597 42.6151 88.8157 43.461 88.2397 44.1753C83.6957 44.6076 79.2797 44.0437 75.0877 42.9911C74.7677 42.9159 74.4797 42.8407 74.1597 42.7467C74.7357 41.0362 72.5277 33.8935 75.2797 32.0326C76.2077 31.4123 77.1357 31.3371 78.0317 31.5251C80.1117 31.9574 82.4477 31.7131 83.9517 30.7732C85.1677 30.0402 86.7037 29.4011 88.5917 29.3823C89.5197 29.3635 90.2557 29.4763 90.8637 29.683C92.7837 30.3033 95.1197 30.0965 96.8477 29.3259C97.3917 29.1003 97.9677 28.95 98.6077 28.95C99.5357 28.95 100.368 29.1755 101.04 29.4763C102.32 30.0402 104.016 30.1717 105.584 29.9838C105.68 29.965 105.776 29.965 105.872 29.965C106.256 29.965 106.672 30.0214 107.024 30.1153C108.368 30.4537 109.872 30.4913 111.216 30.1529C111.856 30.0026 112.624 30.0026 113.392 30.4349C114.352 30.98 115.6 31.3371 116.944 31.3559C117.296 31.3559 117.744 31.4499 118.288 31.6567C118.544 31.7695 118.768 31.9762 118.928 32.2582C119.184 32.6905 119.792 33.01 120.56 33.1416C121.04 33.2356 121.392 33.5175 121.488 34.1566C121.808 36.1867 118.8 42.4648 118 44.1001Z" fill="#423232"/>
<path d="M120.496 33.1228C119.088 33.4236 118.832 33.2544 117.232 33.01C115.632 32.7657 114.224 33.8183 113.072 32.7281C111.408 31.1304 108.336 32.2206 107.728 31.9198C107.12 31.6191 105.232 30.6229 102.576 31.6755C100.816 32.3709 98.5757 31.1304 95.7597 31.1304C90.1277 31.1304 89.1037 33.5551 87.1517 32.4461C85.1997 31.3559 83.1197 32.089 80.2397 32.3897C77.3597 32.6905 75.8877 31.6755 75.8877 31.6755C76.5917 31.3935 77.2957 31.3935 77.9677 31.5251C80.0477 31.9574 82.3837 31.7131 83.8877 30.7732C85.1037 30.0402 86.6397 29.4011 88.5277 29.3823C89.4557 29.3635 90.1917 29.4763 90.7997 29.683C92.7197 30.3033 95.0557 30.0965 96.7837 29.3259C97.3277 29.1003 97.9037 28.95 98.5437 28.95C99.4717 28.95 100.304 29.1755 100.976 29.4763C102.256 30.0402 103.952 30.1717 105.52 29.9838C105.616 29.965 105.712 29.965 105.808 29.965C106.192 29.965 106.608 30.0214 106.96 30.1153C108.304 30.4537 109.808 30.4913 111.152 30.1529C111.792 30.0026 112.56 30.0026 113.328 30.4349C114.288 30.98 115.536 31.3371 116.88 31.3559C117.232 31.3559 117.68 31.4499 118.224 31.6567C118.48 31.7695 118.704 31.9762 118.864 32.2582C119.12 32.6717 119.76 32.9912 120.496 33.1228Z" fill="#5E4949"/>
<path d="M86.896 54.3352C86.352 53.0052 84.912 50.5669 81.52 51.0102C78.128 51.4219 76.592 58.2302 81.584 61.9669C83.024 63.0119 84.528 63.5185 84.528 63.5185L80.656 64.8485C80.656 64.8485 73.616 60.8902 73.36 51.8335C73.232 47.6219 73.68 44.2019 74.16 41.7002C78.608 43.7269 83.344 44.8985 88.24 44.1069C87.696 45.2152 87.088 46.1335 86.512 46.5769C84.752 47.8435 87.12 51.2319 86.896 54.3352Z" fill="#99807F"/>
<path d="M86.9603 46.1334C86.8003 46.2918 86.6723 46.4501 86.5123 46.5451C86.1283 46.8301 85.9363 47.2418 85.8723 47.7168C83.8883 47.8118 81.0403 46.9884 80.0483 46.6718C79.8243 46.6084 79.6963 46.4184 79.6963 46.1968V46.0384C79.6963 45.6901 80.0163 45.4684 80.3363 45.5318C82.5443 46.1334 86.8003 46.1334 86.9603 46.1334Z" fill="#423232"/>
<path d="M86.2875 50.3768C84.5275 50.2501 82.8315 49.9335 82.0635 49.7751C81.8075 49.7118 81.6475 49.5218 81.6475 49.2685C81.6475 48.9518 81.9355 48.7301 82.2555 48.7618C83.6955 48.9835 85.2315 48.9518 85.9675 48.9201C86.0315 49.3635 86.1595 49.8385 86.2875 50.3768Z" fill="#423232"/>
<defs>
<radialGradient id="paint0_radial_454_866" cx="0" cy="0" r="1" gradientUnits="userSpaceOnUse" gradientTransform="translate(76.4712 104.788) rotate(157.06) scale(4.56459 4.38019)">
<stop offset="0.15625" stop-color="#FF8D00"/>
<stop offset="0.536458" stop-color="#FF00FE"/>
<stop offset="1" stop-color="#0094FF"/>
</radialGradient>
</defs>
</svg>
