<svg width="111" height="111" viewBox="0 0 111 111" fill="none" xmlns="http://www.w3.org/2000/svg">
<path d="M55.5 111C24.8222 111 0 86.141 0 55.5C0 24.8222 24.859 0 55.5 0C86.1778 0 111 24.859 111 55.5C111.037 86.1778 86.1778 111 55.5 111Z" fill="#CCCCCC"/>
<mask id="mask0_51_1788" style="mask-type:alpha" maskUnits="userSpaceOnUse" x="0" y="0" width="111" height="111">
<path d="M55.5 111C24.8221 111 0 86.141 0 55.5C0 24.8222 24.859 0 55.5 0C86.1778 0 111 24.859 111 55.5C111.037 86.1778 86.1778 111 55.5 111Z" fill="#B56252"/>
</mask>
<g mask="url(#mask0_51_1788)">
<path d="M79.7391 102.632C79.5109 102.799 79.25 102.965 79.0217 103.132C78.7609 103.299 78.5326 103.465 78.2717 103.599C78.0435 103.732 77.8478 103.865 77.6196 103.999C77.587 104.032 77.5544 104.032 77.5217 104.065C76.7717 104.532 75.9891 104.965 75.2065 105.365C74.9783 105.499 74.7174 105.632 74.4891 105.732C74.4891 105.732 74.4565 105.765 74.4239 105.765C74.163 105.899 73.9022 106.032 73.6413 106.165C73.1196 106.432 72.5652 106.665 72.0435 106.899C71.7826 107.032 71.4891 107.132 71.2283 107.232C70.9674 107.332 70.6739 107.465 70.413 107.565C70.1522 107.665 69.8587 107.799 69.5978 107.899C69.5978 107.899 69.5978 107.899 69.5652 107.899C69.3043 107.999 69.0109 108.099 68.75 108.199C68.163 108.399 67.5435 108.599 66.9565 108.799C66.7609 108.865 66.5326 108.932 66.337 108.999C65.7174 109.199 65.0978 109.365 64.4783 109.499C64.25 109.565 64.0217 109.599 63.7609 109.665C63.1739 109.799 62.5543 109.932 61.9674 110.065C61.837 110.099 61.7391 110.099 61.6087 110.132C61.413 110.165 61.1848 110.199 60.9891 110.232C60.6957 110.265 60.4348 110.332 60.1413 110.365C60.0109 110.399 59.8804 110.399 59.75 110.432C59.587 110.465 59.3913 110.499 59.1957 110.499C58.6739 110.565 58.1196 110.632 57.5978 110.699C57.4348 110.732 57.2391 110.732 57.0761 110.765H57.0435C56.8152 110.799 56.587 110.799 56.3587 110.832C56.1304 110.865 55.9022 110.865 55.6739 110.865C55.5435 110.865 55.3804 110.899 55.25 110.899C54.9891 110.899 54.7609 110.932 54.5326 110.932C54.2065 110.932 53.913 110.965 53.587 110.965C53.2609 110.965 52.9674 110.965 52.6413 110.965C52.413 110.965 52.1848 110.965 51.9565 110.965C38.2283 110.765 25.837 104.799 17.0326 95.3322C17.0326 95.3322 17.0326 95.2988 17 95.2988C18.0109 93.2655 21.7609 89.5988 25.6739 86.5655C30.6304 82.7322 37.6413 80.3655 37.6413 80.3655C37.6413 80.3655 42.2391 79.5988 59.2935 83.2322C72.3043 86.0322 77.8478 97.3988 79.7391 102.632Z" fill="#C99589"/>
<path d="M62.913 92.4655C62.2283 95.8988 57.7935 97.9322 50.3261 94.8655C41.163 91.0655 37.6413 80.3655 37.6413 80.3655C37.1522 72.6988 36.0109 66.1322 36.0109 66.1322C46.6087 65.1988 59.1304 77.8655 59.1304 77.8655L60.5652 84.1322C60.6956 84.6655 60.9565 85.1322 61.3478 85.4655C62.0326 86.6655 63.3696 90.2655 62.913 92.4655Z" fill="#C99589"/>
<path d="M61.3478 85.4989C55.1196 85.1655 50.5218 84.2322 45.5978 75.1989C49.7718 78.9655 54.6957 80.3988 59.8804 81.0655L60.5652 84.1322C60.6957 84.6988 60.9565 85.1655 61.3478 85.4989Z" fill="#A56663"/>
<path d="M74.2283 45.3322C74.8152 48.1322 75.1087 50.3988 73.5109 57.8655C71.913 65.3322 74.9783 72.7988 67.2826 79.6322C62.0978 84.2322 53.0326 85.0988 45.7935 80.0655C43.3478 78.3655 41.0978 75.9988 39.2717 72.8988C37.837 70.4655 36.1739 68.1655 34.3152 66.0655C31.7391 63.1988 28.6413 57.4322 30.1739 47.2322C32.6522 30.6322 48.7283 28.7322 58.2174 30.5655C67.7065 32.3988 72.6304 37.9322 74.2283 45.3322Z" fill="#C99589"/>
<path d="M43.0217 58.3655C43.0217 58.3655 42.0109 53.3655 37.25 53.9655C33.1413 54.4988 31.7065 64.5655 41.0326 67.3655" fill="#C99589"/>
<path d="M38.8549 62.0987C38.8549 62.0987 37.681 61.332 37.8115 59.9987C38.0071 58.432 37.8115 57.4653 37.0941 57.1653C35.3006 56.3987 34.9419 58.532 35.0071 58.7987" stroke="#423232" stroke-width="2" stroke-miterlimit="10" stroke-linecap="round" stroke-linejoin="round"/>
<path d="M65.6196 66.0321C65.6196 66.0321 66.8587 66.0988 68.0326 64.6655C68.6848 63.8655 69.2391 62.8655 68.8804 62.5655C68.5217 62.2321 62.6196 63.1655 62.2282 63.9655C61.8369 64.7655 64.1196 66.0321 65.6196 66.0321Z" fill="#A56663"/>
<path d="M66.5978 54.8322C66.5978 54.8322 66.663 57.9988 68.6521 61.5322C69.5326 63.0988 68.1956 65.6655 65.2935 66.0988" stroke="#423232" stroke-width="2" stroke-miterlimit="10" stroke-linecap="round" stroke-linejoin="round"/>
<path d="M54.1305 57.1369C53.3074 57.1026 52.6901 56.4167 52.7587 55.5936L52.793 54.6333C52.8273 53.8102 53.5132 53.1928 54.3363 53.2614C55.1594 53.2957 55.7767 53.9817 55.7082 54.8048L55.6739 55.7651C55.6396 56.5539 54.9536 57.1712 54.1305 57.1369Z" fill="#423232"/>
<path d="M68.5692 57.6516C67.8146 57.6173 67.2316 56.9657 67.2659 56.2112L67.3002 55.3195C67.3345 54.5649 67.9861 53.9819 68.7406 54.0162C69.4952 54.0505 70.0782 54.7021 70.0439 55.4566L70.0096 56.3483C69.9753 57.1029 69.3237 57.6859 68.5692 57.6516Z" fill="#423232"/>
<path d="M57.4573 55.1477C57.4573 55.1477 56.5656 53.8787 55.0222 53.6386C53.7533 53.4329 52.3471 54.0502 52.1414 54.7704" stroke="#423232" stroke-width="2" stroke-miterlimit="10" stroke-linecap="round" stroke-linejoin="round"/>
<path d="M67.5746 55.4566C67.5746 55.4566 67.5746 54.3591 69.1523 54.3591C70.4555 54.3591 71.0043 55.5595 71.0043 55.5595" stroke="#423232" stroke-width="2" stroke-miterlimit="10" stroke-linecap="round" stroke-linejoin="round"/>
<path d="M58.8634 49.6264C59.5836 49.8665 60.3039 49.2149 60.1667 48.4261C60.0981 48.0145 59.9266 47.6029 59.5836 47.2943C58.5548 46.3683 54.302 45.5452 51.7298 46.7455C49.4663 47.843 55.571 48.5289 58.8634 49.6264Z" fill="#423232"/>
<path d="M69.1178 50.1749C68.5348 50.3807 67.9175 49.7634 68.0203 49.0431C68.0546 48.6659 68.1918 48.2886 68.4662 48.0143C69.2893 47.1912 72.1016 46.5395 73.885 47.8085C75.4283 48.8717 71.7929 49.1803 69.1178 50.1749Z" fill="#423232"/>
<path opacity="0.29" d="M57.0832 51.719C53.4575 51.719 50.5003 54.5349 50.4746 57.9713C50.4746 59.594 51.1175 61.0735 52.1718 62.1474L61.506 53.3894C60.3489 52.3394 58.806 51.719 57.0832 51.719Z" fill="#DBC3ED"/>
<path opacity="0.23" d="M61.5061 53.3895L52.1718 62.1475C53.3547 63.3645 55.0261 64.1043 56.8775 64.1043C60.4518 64.1043 63.3832 61.36 63.4861 57.9475C63.5375 56.1577 62.7661 54.535 61.5061 53.3895Z" fill="#C4ADD8"/>
<path opacity="0.29" d="M72.126 51.719C69.3746 51.719 67.0603 54.5349 66.9575 57.9713C66.906 59.3554 67.2403 60.6201 67.806 61.6463L75.9575 54.1531C75.1089 52.6735 73.7203 51.719 72.126 51.719Z" fill="#DBC3ED"/>
<path opacity="0.23" d="M75.9575 54.1293L67.806 61.6225C68.6546 63.1259 70.0432 64.1043 71.6632 64.1043C74.3632 64.1043 76.6775 61.36 76.8317 57.9475C76.8832 56.5395 76.5489 55.2031 75.9575 54.1293Z" fill="#C4ADD8"/>
<path d="M63.486 57.9713C63.4089 61.3838 60.4517 64.1281 56.8774 64.1281C53.3031 64.1281 50.4489 61.3838 50.4489 57.9713C50.4746 54.5349 53.4317 51.719 57.0574 51.719C60.6831 51.719 63.5889 54.5349 63.486 57.9713Z" stroke="#505354" stroke-width="1.5" stroke-miterlimit="10" stroke-linecap="round" stroke-linejoin="round"/>
<path d="M76.8318 57.9713C76.6775 61.3838 74.3632 64.1281 71.6632 64.1281C68.9632 64.1281 66.8546 61.3838 66.9575 57.9713C67.0603 54.5349 69.3746 51.719 72.126 51.719C74.8775 51.719 76.986 54.5349 76.8318 57.9713Z" stroke="#505354" stroke-width="1.5" stroke-miterlimit="10" stroke-linecap="round" stroke-linejoin="round"/>
<path d="M50.5261 57.3031H46.8746" stroke="#505354" stroke-miterlimit="10" stroke-linecap="round" stroke-linejoin="round"/>
<path d="M63.5117 57.3031C63.5117 57.3031 66.5717 56.2053 66.9574 57.3031" stroke="#505354" stroke-width="1.5" stroke-miterlimit="10" stroke-linecap="round" stroke-linejoin="round"/>
<path d="M87.0494 119.998H8.01526C8.01526 119.998 8.48421 105.877 13.2363 95.804C16.8316 88.1957 25.304 83.9655 31.6192 81.7743C33.4012 81.1657 35.0269 80.7092 36.2775 80.3744C36.2775 80.5266 36.3087 80.6483 36.3087 80.8005C36.3087 80.8005 39.6852 90.5695 48.4702 94.0388C55.6296 96.8691 59.8814 94.9823 60.5379 91.8477C60.9444 89.8391 59.6625 86.5523 59.006 85.4871C58.6309 85.1828 58.3807 84.7263 58.2557 84.2698L58.0056 83.2655C58.5996 83.1438 59.1623 82.9916 59.7251 82.809C59.9127 82.7482 60.069 82.6873 60.2566 82.6264C64.2895 83.6612 70.3547 86.1262 77.514 91.9694C85.6112 98.5429 87.0494 119.998 87.0494 119.998Z" fill="#1B2138"/>
<path d="M45.7503 97.2039C34.9644 92.4868 30.7751 84.0569 31.5879 81.7744C31.5879 81.7744 31.5879 81.7439 31.6192 81.7135C32.1819 80.5875 33.0886 79.6745 34.214 79.0354C34.8393 78.6702 35.5271 78.3354 36.0899 78.1528C36.1211 78.5789 36.2462 79.918 36.2774 80.3745C36.2774 80.5266 36.3087 80.6483 36.3087 80.8005C36.3087 80.8005 38.3096 88.074 47.0946 91.5434C54.2539 94.3737 58.6934 92.5173 59.1623 89.3522C59.6938 85.8524 57.6617 83.3265 57.6617 83.3265C58.2557 83.2047 59.1936 82.9917 59.7563 82.8091C61.1319 84.4221 62.5388 86.035 63.0703 90.2956C63.8206 96.4127 56.9113 102.104 45.7503 97.2039Z" fill="#1F2742"/>
<path d="M23.4907 119.998L22.0838 108.708" stroke="#544D4D" stroke-width="3" stroke-miterlimit="10" stroke-linecap="round" stroke-linejoin="round"/>
<path d="M78.0767 104.873C78.0767 104.873 77.1388 107.095 77.4202 109.316C77.7016 111.538 78.5144 114.794 77.3577 119.998" stroke="#544D4D" stroke-width="2" stroke-miterlimit="10" stroke-linecap="round" stroke-linejoin="round"/>
<path fill-rule="evenodd" clip-rule="evenodd" d="M37.5395 103.671C37.6229 103.666 37.689 103.601 37.689 103.521V102.932C37.689 102.907 37.6822 102.883 37.6703 102.861C37.6434 102.814 37.5904 102.782 37.5294 102.782L36.2781 102.782L36.2745 102.782L36.2673 102.782C36.1791 102.782 36.1077 102.849 36.1077 102.932V104.11C36.1077 104.193 36.1791 104.26 36.2673 104.26C36.3554 104.26 36.4268 104.193 36.4268 104.11L36.4268 103.672L37.5294 103.672L37.5395 103.671ZM36.4268 103.083H37.3698V103.37H36.4268V103.083Z" fill="white"/>
<path d="M39.3858 103.67C39.4645 103.661 39.5253 103.598 39.5253 103.521V102.932C39.5253 102.907 39.5186 102.883 39.5066 102.861C39.4798 102.814 39.4268 102.782 39.3658 102.782L38.1145 102.782L38.1109 102.782L38.1036 102.782C38.0155 102.782 37.944 102.849 37.944 102.932V104.11C37.944 104.193 38.0155 104.26 38.1036 104.26C38.1918 104.26 38.2632 104.193 38.2632 104.11L38.2632 103.083H39.2062V103.37L38.7921 103.37C38.7466 103.367 38.6998 103.381 38.665 103.414L38.6572 103.422C38.6028 103.481 38.6054 103.571 38.665 103.627L39.2497 104.179C39.3121 104.238 39.4131 104.238 39.4754 104.179L39.4832 104.171C39.5376 104.112 39.535 104.022 39.4754 103.966L39.1637 103.672L39.3658 103.672L39.3759 103.671L39.3858 103.67Z" fill="white"/>
<path fill-rule="evenodd" clip-rule="evenodd" d="M39.9472 104.26L39.9545 104.26H41.2021L41.2122 104.26C41.2956 104.255 41.3617 104.19 41.3617 104.11V102.932C41.3617 102.907 41.3549 102.883 41.343 102.861C41.3162 102.814 41.2631 102.782 41.2021 102.782L39.9508 102.782L39.9472 102.782L39.94 102.782C39.8518 102.782 39.7804 102.849 39.7804 102.932V104.11C39.7804 104.193 39.8518 104.26 39.94 104.26C39.9424 104.26 39.9448 104.26 39.9472 104.26ZM40.0995 103.083H41.0425V103.959H40.0995V103.083Z" fill="white"/>
<path d="M43.1825 102.904C43.1686 102.834 43.1037 102.782 43.0257 102.782H42.5606C42.4725 102.782 42.401 102.849 42.401 102.932C42.401 103.015 42.4725 103.083 42.5606 103.083L42.8658 103.083V103.959L41.7763 103.959C41.6882 103.959 41.6167 104.027 41.6167 104.11C41.6167 104.193 41.6882 104.26 41.7763 104.26H43.0257C43.1139 104.26 43.1853 104.193 43.1853 104.11V102.932C43.1853 102.923 43.1843 102.913 43.1825 102.904Z" fill="white"/>
<path d="M46.8453 102.932C46.8453 102.849 46.7738 102.782 46.6857 102.782H45.4363C45.3481 102.782 45.2767 102.849 45.2767 102.932C45.2767 103.015 45.3481 103.083 45.4363 103.083L45.9012 103.083L45.9012 104.11C45.9012 104.193 45.9727 104.26 46.061 104.26C46.1492 104.26 46.2207 104.193 46.2207 104.11L46.2207 103.083L46.6857 103.083C46.7738 103.083 46.8453 103.015 46.8453 102.932Z" fill="white"/>
<path fill-rule="evenodd" clip-rule="evenodd" d="M47.2671 104.26L47.2744 104.26H48.522L48.5321 104.26C48.6156 104.255 48.6816 104.19 48.6816 104.11V102.932C48.6816 102.907 48.6748 102.883 48.6629 102.861C48.6361 102.814 48.5831 102.782 48.522 102.782L47.2707 102.782L47.2671 102.782L47.2599 102.782C47.1717 102.782 47.1003 102.849 47.1003 102.932V104.11C47.1003 104.193 47.1717 104.26 47.2599 104.26C47.2623 104.26 47.2647 104.26 47.2671 104.26ZM47.4195 103.083H48.3624V103.959H47.4195V103.083Z" fill="white"/>
<path d="M43.4403 104.123C43.4403 104.206 43.5111 104.272 43.5983 104.272H44.8637C44.9509 104.272 45.0217 104.206 45.0217 104.123C45.0217 104.041 44.9509 103.974 44.8637 103.974L43.7566 103.974V103.08L44.8637 103.08C44.9509 103.08 45.0217 103.013 45.0217 102.931C45.0217 102.848 44.9509 102.782 44.8637 102.782H43.5983C43.5211 102.782 43.4569 102.834 43.4431 102.903C43.4413 102.912 43.4403 102.921 43.4403 102.931V104.123Z" fill="white"/>
<path d="M44.3891 103.527C44.3891 103.445 44.3184 103.378 44.2312 103.378H44.2308C44.1436 103.378 44.0729 103.445 44.0729 103.527C44.0729 103.609 44.1436 103.676 44.2308 103.676H44.2312C44.3184 103.676 44.3891 103.609 44.3891 103.527Z" fill="white"/>
<path d="M68.337 105.402L68.3358 105.401C68.1845 105.319 67.9915 105.369 67.9046 105.512L66.6955 107.499L65.4865 105.512L65.4793 105.5C65.3892 105.366 65.2025 105.322 65.0553 105.401L65.0541 105.402L65.042 105.409C64.8996 105.495 64.8526 105.672 64.9377 105.812L66.4149 108.24C66.4275 108.263 66.4432 108.284 66.4622 108.304C66.4972 108.34 66.5406 108.367 66.5878 108.383L66.588 108.383C66.5886 108.383 66.5892 108.383 66.5898 108.383C66.5924 108.384 66.5951 108.385 66.5978 108.386C66.6002 108.387 66.6027 108.388 66.6051 108.388L66.6086 108.389C66.612 108.39 66.6154 108.391 66.6189 108.392C66.6193 108.392 66.6199 108.392 66.6204 108.392C66.6239 108.393 66.6275 108.394 66.6312 108.394L66.6315 108.394C66.6323 108.395 66.6332 108.395 66.634 108.395C66.6361 108.395 66.6383 108.396 66.6404 108.396C66.6418 108.396 66.6432 108.397 66.6446 108.397L66.6457 108.397C66.6492 108.398 66.6527 108.398 66.6562 108.398C66.6608 108.399 66.6654 108.399 66.67 108.4C66.6713 108.4 66.6726 108.4 66.6738 108.4C66.6754 108.4 66.677 108.4 66.6785 108.4C66.6801 108.4 66.6816 108.4 66.6831 108.4C66.6848 108.401 66.6864 108.401 66.688 108.401L66.6937 108.401L66.7003 108.401L66.7031 108.401L66.708 108.4C66.7111 108.4 66.7142 108.4 66.7173 108.4L66.7196 108.4L66.7211 108.4C66.7256 108.399 66.7302 108.399 66.7348 108.398C66.7383 108.398 66.7419 108.397 66.7454 108.397L66.7465 108.397C66.75 108.396 66.7536 108.396 66.7571 108.395L66.7588 108.395C66.7592 108.395 66.7596 108.395 66.7599 108.394C66.762 108.394 66.7641 108.394 66.7662 108.393C66.7677 108.393 66.7692 108.392 66.7707 108.392L66.7708 108.392C66.7713 108.392 66.7718 108.392 66.7723 108.392C66.7757 108.391 66.7791 108.39 66.7825 108.389L66.786 108.388C66.7873 108.388 66.7886 108.387 66.7899 108.387C66.791 108.387 66.7922 108.386 66.7933 108.386C66.796 108.385 66.7987 108.384 66.8013 108.383L66.8015 108.383C66.8021 108.383 66.8027 108.383 66.8033 108.383C66.8546 108.365 66.9014 108.335 66.938 108.294C66.9529 108.277 66.9656 108.259 66.9762 108.24L68.4534 105.812C68.5408 105.669 68.4888 105.485 68.337 105.402Z" fill="white"/>
<path fill-rule="evenodd" clip-rule="evenodd" d="M61.669 105.649C61.6621 105.489 61.5228 105.362 61.352 105.362H58.8071C58.6319 105.362 58.4899 105.496 58.4899 105.661V108.057C58.4899 108.223 58.6319 108.357 58.8071 108.357H61.352C61.5272 108.357 61.6693 108.223 61.6693 108.057V105.662C61.6693 105.658 61.6692 105.654 61.669 105.65V105.649ZM58.4899 105.661L58.4901 105.65L58.4899 105.656L58.4899 105.661ZM59.1257 105.961H61.0334V107.758H59.1257V105.961Z" fill="white"/>
<path d="M46.5671 105.661C46.5671 105.496 46.425 105.362 46.2498 105.362H43.7049C43.5297 105.362 43.3876 105.496 43.3876 105.661V106.859C43.3876 107.025 43.5297 107.159 43.7049 107.159L45.9312 107.159V107.758L43.7049 107.758C43.5297 107.758 43.3876 107.892 43.3876 108.057C43.3876 108.223 43.5297 108.357 43.7049 108.357H46.2498C46.425 108.357 46.5671 108.223 46.5671 108.057V106.86C46.5671 106.856 46.567 106.852 46.5668 106.847V106.847C46.5599 106.687 46.4206 106.56 46.2498 106.56L44.0235 106.56V105.961L46.2498 105.961C46.425 105.961 46.5671 105.827 46.5671 105.661Z" fill="white"/>
<path d="M50.2608 105.661C50.2608 105.496 50.1187 105.362 49.9435 105.362H47.3986C47.2234 105.362 47.0814 105.496 47.0814 105.661V108.057C47.0814 108.223 47.2234 108.357 47.3986 108.357H49.9435C50.1187 108.357 50.2608 108.223 50.2608 108.057C50.2608 107.892 50.1187 107.758 49.9435 107.758L47.7172 107.758V105.961L49.9435 105.961C50.1187 105.961 50.2608 105.827 50.2608 105.661Z" fill="white"/>
<path d="M72.1894 105.661C72.1894 105.496 72.0473 105.362 71.8721 105.362H69.3273C69.152 105.362 69.01 105.496 69.01 105.661V108.057C69.01 108.223 69.152 108.357 69.3273 108.357H71.8721C72.0473 108.357 72.1894 108.223 72.1894 108.057C72.1894 107.892 72.0473 107.758 71.8721 107.758L69.6458 107.758V105.961L71.8721 105.961C72.0473 105.961 72.1894 105.827 72.1894 105.661Z" fill="white"/>
<path d="M42.9201 105.661C42.9201 105.496 42.778 105.362 42.6028 105.362H40.0579C39.8827 105.362 39.7407 105.496 39.7407 105.661V108.057C39.7407 108.223 39.8827 108.357 40.0579 108.357H42.6028C42.778 108.357 42.9201 108.223 42.9201 108.057C42.9201 107.892 42.778 107.758 42.6028 107.758L40.3765 107.758V105.961L42.6028 105.961C42.778 105.961 42.9201 105.827 42.9201 105.661Z" fill="white"/>
<path d="M53.9075 105.649C53.9006 105.489 53.7613 105.362 53.5905 105.362H51.0456C50.8748 105.362 50.7355 105.489 50.7286 105.649L50.7284 105.656L50.7283 105.661V108.057C50.7283 108.222 50.8707 108.357 51.0463 108.357C51.2219 108.357 51.3642 108.222 51.3642 108.057L51.3642 105.961H53.2719L53.2719 108.057C53.2719 108.222 53.4142 108.357 53.5898 108.357C53.7654 108.357 53.9078 108.222 53.9078 108.057V105.662C53.9078 105.658 53.9077 105.654 53.9075 105.65V105.649Z" fill="white"/>
<path fill-rule="evenodd" clip-rule="evenodd" d="M37.7868 105.403C37.7397 105.377 37.6848 105.362 37.6262 105.362H36.3642C36.189 105.362 36.0469 105.496 36.0469 105.661V108.057C36.0469 108.223 36.189 108.357 36.3642 108.357H37.6262C37.6682 108.357 37.7082 108.349 37.7448 108.335C37.7884 108.321 37.8293 108.297 37.8641 108.264L39.0978 107.103C39.1101 107.095 39.122 107.085 39.1332 107.074L39.1338 107.074C39.1961 107.015 39.2269 106.938 39.2263 106.86C39.2269 106.783 39.1961 106.706 39.1338 106.647L39.1332 106.646C39.122 106.636 39.1101 106.626 39.0978 106.618L37.8641 105.457C37.8407 105.435 37.8146 105.417 37.7868 105.403ZM36.6833 105.961H37.4998L38.4557 106.86L37.5022 107.758H36.6833V105.961Z" fill="white"/>
<path d="M62.8192 105.65C62.8123 105.49 62.6727 105.362 62.5015 105.362C62.3259 105.362 62.1836 105.496 62.1836 105.662V108.057L62.1839 108.07C62.1907 108.229 62.33 108.357 62.5009 108.357H65.0457L65.0588 108.356C65.228 108.35 65.363 108.218 65.363 108.057L65.3627 108.045C65.3559 107.885 65.2166 107.758 65.0457 107.758L62.8195 107.758L62.8195 105.662L62.8192 105.65Z" fill="white"/>
<path d="M48.989 106.859C48.989 106.694 48.847 106.56 48.6717 106.56H48.6704C48.4952 106.56 48.3531 106.694 48.3531 106.859C48.3531 107.025 48.4952 107.159 48.6704 107.159H48.6717C48.847 107.159 48.989 107.025 48.989 106.859Z" fill="white"/>
<path d="M70.9176 106.859C70.9176 106.694 70.7756 106.56 70.6003 106.56H70.599C70.4238 106.56 70.2817 106.694 70.2817 106.859C70.2817 107.025 70.4238 107.159 70.599 107.159H70.6003C70.7756 107.159 70.9176 107.025 70.9176 106.859Z" fill="white"/>
<path d="M41.6483 106.859C41.6483 106.694 41.5063 106.56 41.331 106.56H41.3297C41.1545 106.56 41.0124 106.694 41.0124 106.859C41.0124 107.025 41.1545 107.159 41.3297 107.159H41.331C41.5063 107.159 41.6483 107.025 41.6483 106.859Z" fill="white"/>
<path d="M56.2146 108.401L56.2203 108.401H56.2241C56.225 108.401 56.226 108.401 56.227 108.401C56.2279 108.401 56.2288 108.401 56.2297 108.401C56.2313 108.401 56.233 108.401 56.2346 108.4C56.2377 108.4 56.2408 108.4 56.2439 108.4L56.245 108.4C56.2459 108.4 56.2468 108.4 56.2477 108.4C56.2558 108.399 56.2639 108.398 56.272 108.397C56.2724 108.397 56.2728 108.397 56.2731 108.397C56.2767 108.396 56.2802 108.396 56.2837 108.395C56.2847 108.395 56.2856 108.395 56.2866 108.394C56.2902 108.394 56.2938 108.393 56.2974 108.392L56.2974 108.392C56.2979 108.392 56.2984 108.392 56.2989 108.392C56.3023 108.391 56.3057 108.39 56.3091 108.389L56.3126 108.388C56.3151 108.388 56.3175 108.387 56.3199 108.386C56.3226 108.385 56.3253 108.384 56.328 108.383C56.3285 108.383 56.329 108.383 56.3295 108.383L56.33 108.383C56.3813 108.365 56.428 108.335 56.4647 108.294C56.4795 108.277 56.4923 108.259 56.5028 108.24L57.9801 105.812C58.0675 105.669 58.0154 105.485 57.8637 105.402L57.8624 105.401C57.7112 105.319 57.5181 105.369 57.4312 105.512L56.2222 107.499L55.0132 105.512C54.9263 105.369 54.7332 105.319 54.5819 105.401L54.5807 105.402C54.4289 105.485 54.3769 105.669 54.4643 105.812L55.9415 108.24C55.9541 108.263 55.9699 108.284 55.9888 108.304C56.0239 108.34 56.0672 108.367 56.1144 108.383C56.1151 108.383 56.1157 108.383 56.1164 108.383C56.1191 108.384 56.1218 108.385 56.1244 108.386C56.1269 108.387 56.1293 108.388 56.1317 108.388L56.1353 108.389C56.1363 108.389 56.1374 108.39 56.1384 108.39C56.1408 108.391 56.1431 108.391 56.1455 108.392C56.146 108.392 56.1465 108.392 56.147 108.392C56.1489 108.393 56.1508 108.393 56.1527 108.393C56.1544 108.394 56.1561 108.394 56.1578 108.394C56.1587 108.395 56.1597 108.395 56.1607 108.395C56.1642 108.396 56.1677 108.396 56.1712 108.397C56.1716 108.397 56.172 108.397 56.1723 108.397C56.1804 108.398 56.1885 108.399 56.1966 108.4C56.1979 108.4 56.1992 108.4 56.2005 108.4C56.2036 108.4 56.2067 108.4 56.2098 108.4C56.2114 108.401 56.213 108.401 56.2146 108.401Z" fill="white"/>
<path fill-rule="evenodd" clip-rule="evenodd" d="M33.1442 105.398L33.1589 105.398L33.1795 105.399L33.1918 105.4L33.2052 105.402L33.2137 105.403L33.2302 105.406L33.2397 105.408L33.2515 105.411L33.264 105.415L33.2855 105.422L33.3023 105.428L33.3185 105.435L33.3292 105.44L33.3442 105.448L33.3591 105.456L33.3671 105.461L33.3826 105.471L33.3915 105.477L33.4 105.484L33.4116 105.493L33.4249 105.505L33.4374 105.516L33.441 105.52L33.4496 105.529L33.4616 105.543L33.4674 105.55L33.4765 105.562L33.4822 105.57L33.4876 105.578L33.4943 105.588L33.5023 105.602C33.5048 105.606 33.5072 105.611 33.5095 105.615C33.5116 105.619 33.5136 105.624 33.5155 105.628C33.5214 105.641 33.5266 105.654 33.531 105.667C33.5325 105.672 33.5339 105.677 33.5352 105.681C33.5393 105.696 33.5425 105.71 33.5447 105.725L33.5467 105.741L33.5473 105.747C33.548 105.755 33.5484 105.762 33.5486 105.77L33.5488 105.78V107.672L33.5486 107.683L33.5479 107.697L33.547 107.708L33.5458 107.719L33.5445 107.728C33.5437 107.733 33.5429 107.738 33.5419 107.743L33.54 107.751L33.5372 107.763L33.5344 107.774C33.5325 107.78 33.5304 107.787 33.5281 107.793C33.5261 107.799 33.524 107.804 33.5219 107.809L33.5153 107.825C33.5124 107.831 33.5095 107.837 33.5063 107.843L33.5025 107.85L33.4947 107.863L33.4875 107.874L33.4822 107.882C33.4783 107.888 33.4744 107.893 33.4703 107.898L33.4583 107.913L33.4478 107.925L33.4404 107.932L33.4299 107.943L33.4152 107.956L33.4078 107.962L33.3962 107.971L33.3893 107.976L33.3831 107.98L33.3824 107.981C33.3365 108.025 33.2787 108.059 33.2121 108.078L33.1986 108.082L30.6707 108.721C30.6517 108.726 30.5591 108.745 30.4708 108.745C30.3787 108.745 30.2907 108.726 30.2709 108.721L27.743 108.082C27.6752 108.065 27.616 108.032 27.5686 107.99L27.5585 107.98L27.5523 107.976L27.5388 107.966L27.5264 107.956L27.5227 107.953C27.5153 107.946 27.5081 107.939 27.5012 107.932L27.4903 107.921L27.4788 107.908L27.4776 107.906C27.4734 107.901 27.4693 107.896 27.4653 107.89L27.4558 107.877L27.4469 107.863L27.443 107.857C27.4404 107.852 27.4378 107.847 27.4353 107.843L27.4307 107.834L27.424 107.819L27.4231 107.817C27.4197 107.809 27.4165 107.801 27.4136 107.793L27.4103 107.783L27.4062 107.77L27.4037 107.76C27.4022 107.754 27.4009 107.748 27.3997 107.743C27.3988 107.738 27.3979 107.733 27.3971 107.728L27.3954 107.715L27.394 107.701L27.3935 107.694L27.393 107.683L27.3929 107.672V105.78C27.3929 105.773 27.393 105.766 27.3934 105.76L27.3938 105.753L27.3949 105.741C27.3971 105.72 27.401 105.7 27.4064 105.681C27.4077 105.677 27.4091 105.672 27.4106 105.667C27.415 105.654 27.4202 105.641 27.4261 105.628C27.428 105.624 27.43 105.619 27.4321 105.615L27.4356 105.608L27.4425 105.596L27.4497 105.584L27.4553 105.576L27.4594 105.57L27.4687 105.557L27.4739 105.55L27.4792 105.544L27.4837 105.538L27.492 105.529L27.5042 105.516L27.5147 105.506L27.53 105.493L27.5416 105.484L27.5546 105.474L27.5676 105.465L27.5745 105.461L27.5836 105.455L27.5995 105.446L27.6124 105.44L27.6231 105.435L27.6393 105.428L27.6589 105.421L27.675 105.416L27.6901 105.411L27.7043 105.408L27.7194 105.405L27.7279 105.403L27.7417 105.401L27.7562 105.4L27.7682 105.399L27.7827 105.398L27.7974 105.398L27.8077 105.398C27.8126 105.398 27.8175 105.398 27.8224 105.398L27.8334 105.399C27.8429 105.4 27.8524 105.401 27.8617 105.403L27.8781 105.405L27.8905 105.408L27.9044 105.411L27.9162 105.414L27.9288 105.418L27.9441 105.424L27.9512 105.426L27.9688 105.434L27.987 105.442L27.9988 105.448L28.0133 105.457L28.0237 105.463L28.0332 105.469L28.0434 105.476L28.0529 105.484L28.0626 105.491L28.0761 105.503L28.0868 105.513L28.1009 105.527L28.1115 105.539L28.1181 105.547L28.1304 105.563L28.1376 105.573L28.146 105.586L28.1546 105.6L28.1555 105.602C28.1579 105.606 28.1603 105.611 28.1626 105.615L28.1659 105.622L28.1732 105.638L28.1767 105.646L28.1802 105.656L28.1812 105.659C28.1838 105.666 28.1862 105.673 28.1883 105.681C28.1921 105.694 28.1951 105.708 28.1974 105.722C28.1986 105.73 28.1997 105.738 28.2004 105.746C28.2011 105.754 28.2015 105.761 28.2018 105.768L28.2019 105.78V107.365L30.4708 107.939L32.7397 107.365V105.78C32.7397 105.768 32.7402 105.757 32.7412 105.746C32.742 105.738 32.743 105.73 32.7443 105.722C32.7465 105.708 32.7495 105.694 32.7533 105.681C32.7555 105.673 32.7578 105.666 32.7604 105.659L32.7624 105.653L32.765 105.646L32.7717 105.63L32.7726 105.629C32.7746 105.624 32.7768 105.62 32.7791 105.615L32.7825 105.608L32.7907 105.594L32.7971 105.583L32.804 105.573L32.8132 105.56L32.8191 105.552L32.8236 105.547L32.8301 105.539L32.8407 105.527L32.8529 105.515L32.8655 105.503L32.8695 105.499L32.879 105.491L32.8916 105.481L32.903 105.473L32.9134 105.466L32.9252 105.458L32.9335 105.454L32.9466 105.446L32.9602 105.439L32.9702 105.435L32.9834 105.429L32.9904 105.426L33.0033 105.422L33.0181 105.417L33.0288 105.413L33.0463 105.409L33.0608 105.406L33.066 105.405C33.0798 105.402 33.0939 105.4 33.1083 105.399L33.1193 105.398C33.1241 105.398 33.129 105.398 33.1339 105.398L33.1442 105.398ZM29.8155 106.245L29.817 106.244H31.1246L31.1262 106.245L31.1311 106.244L31.1363 106.245C31.216 106.247 31.2799 106.309 31.2799 106.385C31.2799 106.402 31.2767 106.418 31.271 106.433C31.1822 106.764 30.8655 107.008 30.4884 107.008L30.4708 107.008L30.4532 107.008C30.0761 107.008 29.7594 106.764 29.6706 106.433C29.6649 106.418 29.6617 106.402 29.6617 106.385C29.6617 106.309 29.7256 106.247 29.8054 106.245L29.8105 106.244C29.8122 106.244 29.8138 106.244 29.8155 106.245ZM31.6316 104.717C31.9328 104.717 32.1769 104.947 32.1769 105.232C32.1769 105.516 31.9328 105.746 31.6316 105.746C31.3305 105.746 31.0864 105.516 31.0864 105.232C31.0864 104.947 31.3305 104.717 31.6316 104.717ZM29.3452 104.717C29.6463 104.717 29.8904 104.947 29.8904 105.232C29.8904 105.516 29.6463 105.746 29.3452 105.746C29.044 105.746 28.7999 105.516 28.7999 105.232C28.7999 104.947 29.044 104.717 29.3452 104.717ZM30.4708 100.832L30.4824 100.832C30.8268 100.838 31.104 101.103 31.104 101.43C31.104 101.526 31.0801 101.616 31.0378 101.696C31.0119 101.745 30.9793 101.79 30.9409 101.83L30.9326 101.839C30.9214 101.85 30.9098 101.861 30.8977 101.871L30.8886 101.879C30.8763 101.889 30.8636 101.899 30.8505 101.908L30.8406 101.915L30.8322 101.921L30.8204 101.928L30.8101 101.935L30.8017 101.939L30.7933 101.944C30.7903 101.946 30.7874 101.948 30.7844 101.949C30.768 101.958 30.7513 101.966 30.7341 101.974L30.7227 101.978L30.7161 101.981C30.7055 101.985 30.6947 101.989 30.6838 101.993L30.6761 101.995L30.6643 101.999L30.6643 102.575L33.2441 103.227C33.4045 103.268 33.5163 103.394 33.5394 103.539C33.5406 103.544 33.5416 103.549 33.5425 103.554C33.5449 103.567 33.5466 103.58 33.5476 103.593L33.5485 103.609L33.5488 103.615V104.717L33.5486 104.727C33.548 104.75 33.5451 104.773 33.5402 104.796C33.5383 104.804 33.5361 104.813 33.5336 104.821C33.5287 104.837 33.5226 104.853 33.5155 104.869C33.5136 104.873 33.5116 104.877 33.5095 104.881L33.5062 104.888L33.4988 104.901L33.4925 104.911L33.4864 104.921L33.4822 104.927L33.473 104.94L33.4681 104.946L33.4579 104.958L33.4496 104.967L33.4374 104.98L33.427 104.99L33.413 105.002L33.4 105.013L33.3903 105.02L33.374 105.031L33.3671 105.036L33.358 105.041L33.3421 105.05L33.3292 105.057L33.3185 105.062L33.3074 105.067L33.294 105.072L33.2831 105.076L33.2668 105.081L33.2543 105.085L33.2373 105.089L33.2222 105.092L33.2137 105.093L33.1999 105.095L33.1854 105.097L33.1734 105.098L33.1589 105.099L33.1442 105.099L33.1339 105.099L33.1193 105.098L33.1082 105.097C33.0987 105.097 33.0892 105.095 33.0799 105.094L33.0635 105.091L33.0511 105.089L33.0372 105.085L33.0254 105.082L33.0129 105.078L32.9975 105.073L32.9904 105.07L32.9728 105.063L32.9547 105.054L32.9409 105.047L32.9283 105.04L32.9179 105.034L32.9084 105.027L32.8982 105.02L32.8887 105.013L32.8789 105.005L32.8654 104.994L32.8548 104.984L32.8407 104.969L32.8293 104.957L32.8232 104.949L32.8112 104.934L32.804 104.924L32.7952 104.91L32.7868 104.896L32.7858 104.894C32.7835 104.89 32.7812 104.886 32.7791 104.882C32.7768 104.877 32.7746 104.873 32.7726 104.868L32.7699 104.862L32.7674 104.856C32.7657 104.852 32.764 104.848 32.7624 104.843C32.7608 104.839 32.7592 104.835 32.7577 104.83C32.754 104.819 32.7508 104.807 32.7482 104.795C32.7438 104.775 32.741 104.754 32.74 104.733L32.7397 104.717V103.924L30.4708 103.35L28.2019 103.924V104.717C28.2019 104.744 28.199 104.77 28.1934 104.795C28.1908 104.807 28.1876 104.819 28.1839 104.83C28.1824 104.835 28.1809 104.839 28.1792 104.843L28.1768 104.85L28.1717 104.862L28.1691 104.868C28.167 104.873 28.1648 104.877 28.1626 104.882L28.1593 104.888L28.1515 104.902L28.1445 104.913L28.1376 104.924L28.1284 104.937L28.123 104.944L28.1184 104.949L28.1108 104.958L28.1009 104.969L28.0887 104.982L28.0762 104.994L28.0723 104.997L28.0627 105.005L28.0464 105.018L28.0359 105.025L28.0237 105.034L28.0104 105.042L28.0032 105.046L27.9891 105.053L27.9774 105.059L27.9631 105.066L27.9582 105.068L27.9512 105.07L27.9384 105.075L27.9235 105.08L27.9128 105.083L27.8954 105.088L27.8808 105.091L27.8757 105.092C27.8618 105.094 27.8477 105.096 27.8334 105.097L27.8181 105.098L27.8077 105.099L27.7974 105.099L27.7827 105.099L27.7622 105.097L27.7498 105.096L27.7364 105.095L27.7279 105.093L27.7115 105.09L27.702 105.088L27.6901 105.085L27.6748 105.081L27.6561 105.075L27.6393 105.069L27.6231 105.062L27.6124 105.057L27.5974 105.049L27.5826 105.041L27.5745 105.036L27.559 105.026L27.5501 105.019L27.5416 105.013L27.5272 105.001L27.5146 104.99L27.5042 104.98L27.5006 104.976L27.492 104.967L27.4786 104.952L27.4736 104.946L27.4651 104.935L27.4594 104.927L27.452 104.916L27.4443 104.904L27.4388 104.894C27.4365 104.89 27.4343 104.886 27.4321 104.881C27.43 104.877 27.428 104.873 27.4261 104.869C27.419 104.853 27.413 104.837 27.4081 104.821C27.4055 104.813 27.4033 104.804 27.4014 104.795C27.3965 104.773 27.3936 104.75 27.393 104.727L27.3929 104.717V103.615L27.3932 103.606C27.3939 103.588 27.3959 103.571 27.3991 103.554L27.4008 103.546L27.4022 103.539C27.4248 103.397 27.5322 103.273 27.6869 103.23L27.6975 103.227L30.2773 102.575L30.2773 101.999L30.2734 101.998C30.2681 101.996 30.2629 101.995 30.2578 101.993C30.2469 101.989 30.2361 101.985 30.2255 101.981L30.2189 101.978L30.2075 101.974C30.1903 101.966 30.1736 101.958 30.1573 101.949L30.1483 101.944C30.1427 101.941 30.1371 101.938 30.1316 101.935L30.118 101.926C30.1122 101.923 30.1066 101.919 30.101 101.915L30.0911 101.908C30.078 101.899 30.0653 101.889 30.053 101.879L30.0439 101.871C30.0318 101.861 30.0202 101.85 30.009 101.839L30.0007 101.83C29.9624 101.79 29.9297 101.745 29.9039 101.696C29.8615 101.616 29.8376 101.526 29.8376 101.43C29.8376 101.1 30.1211 100.832 30.4708 100.832ZM34.2699 104.667L34.2802 104.667C34.4954 104.672 34.6688 104.836 34.6743 105.039L34.6744 105.049V105.414C34.6744 105.622 34.4988 105.791 34.2802 105.796L34.2699 105.796C34.0465 105.796 33.8653 105.625 33.8653 105.414V105.049C33.8653 104.838 34.0465 104.667 34.2699 104.667ZM26.6717 105.796C26.4483 105.796 26.2672 105.625 26.2672 105.414V105.049C26.2672 104.838 26.4483 104.667 26.6717 104.667L26.682 104.667C26.8972 104.672 27.0707 104.836 27.0761 105.039L27.0763 105.049V105.414C27.0763 105.622 26.9007 105.791 26.682 105.796L26.6717 105.796Z" fill="url(#paint0_angular_51_1788)"/>
</g>
<path d="M67.2722 40.5783C68.0037 40.9592 68.6307 40.6129 69.0139 39.8512C73.0545 39.228 73.995 47.2606 74.1343 47.7453C74.2737 48.2646 74.3433 49.7188 74.0647 53.7004C73.8905 55.9163 86.8484 40.1975 75.0052 33.5499C75.876 32.2688 75.249 25.8982 67.9689 24.3401C65.3564 23.7862 61.9428 26.2098 57.6583 25.275C40.9036 21.5703 23.5219 25.1019 24.8804 47.0874C25.1939 51.9 25.5074 57.0935 17.2868 60.5558C7.74252 64.5721 8.23018 75.0628 14.953 77.2094C17.7396 78.1096 8.54368 84.3418 13.908 89.8814C16.6946 92.7898 21.6757 86.9039 26.7265 90.0892C34.355 94.9018 38.1518 92.7205 39.6496 90.8163C42.7149 86.9385 38.9181 79.1483 38.9181 79.1483C38.9181 79.1483 40.4159 76.7593 40.9036 75.4783C43.2722 69.1769 37.6293 66.3378 37.6293 66.3378C28.921 63.014 30.4885 53.3542 34.7381 52.8002C39.1968 52.2463 40.5901 56.1933 40.8339 57.1627C40.8339 57.1627 44.7701 62.5639 52.3637 50.2381C59.8876 37.9124 63.9979 38.8126 67.2722 40.5783Z" fill="#423232"/>
<path d="M54 73C56.5 75 59.4 76.6 65 73" stroke="#423232" stroke-width="2" stroke-linecap="round"/>
<defs>
<radialGradient id="paint0_angular_51_1788" cx="0" cy="0" r="1" gradientUnits="userSpaceOnUse" gradientTransform="translate(30.4708 104.788) rotate(157.06) scale(4.56459 4.38019)">
<stop offset="0.15625" stop-color="#FF8D00"/>
<stop offset="0.536458" stop-color="#FF00FE"/>
<stop offset="1" stop-color="#0094FF"/>
</radialGradient>
</defs>
</svg>
